<svg width="117" height="132" viewBox="0 0 117 132" fill="none" xmlns="http://www.w3.org/2000/svg">
<path d="M51.6542 59.0915C51.6542 59.0915 42.0883 58.9578 33.9362 65.5415C30.5679 68.2623 25.1916 73.0282 20.0425 77.6842C19.6014 70.7886 18.5856 62.4049 16.989 53.0276C18.9643 51.679 19.5673 48.575 19.7351 47.2429C19.9356 45.6537 18.8603 43.3889 18.8603 43.3889C18.8603 43.3889 20.595 31.5878 19.1782 31.9368C17.7613 32.2858 16.3549 41.7032 16.3549 41.7032C15.0539 38.571 12.5454 41.6067 12.5454 41.6067C11.0974 38.571 9.03303 41.9438 9.03303 41.9438C8.9959 41.8369 8.94837 41.7359 8.89045 41.6393C8.83253 41.5428 8.7657 41.4522 8.68996 41.369C8.61421 41.2859 8.53104 41.2101 8.44045 41.1433C8.34985 41.0765 8.25332 41.02 8.15084 40.9725C8.04837 40.9265 7.94292 40.8893 7.83302 40.8641C7.72312 40.8374 7.61173 40.8225 7.49886 40.8195C7.38598 40.8166 7.2746 40.824 7.16321 40.8433C7.05331 40.8626 6.94489 40.8923 6.83945 40.9324C5.17755 41.4626 5.75676 44.9795 5.8533 47.8221C5.94389 49.2671 6.34934 50.6186 7.06667 51.8751C3.50377 69.7876 3.46813 82.1753 3.84388 89.1036C3.91962 90.5204 4.05477 92.4408 5.41072 94.015C11.5118 101.093 36.7699 94.7116 47.417 78.6362C49.1784 75.9644 50.5255 73.098 51.4566 70.0356C53.025 63.8366 51.6542 59.0915 51.6542 59.0915Z" fill="white"/>
<path d="M14.0263 97.1766C9.95841 97.1766 6.85294 96.1429 5.18659 94.2077C3.73113 92.5206 3.62123 90.4741 3.54697 89.1196C2.95291 78.1606 4.03262 65.6466 6.75641 51.9208C6.0465 50.648 5.64699 49.2846 5.55788 47.8291C5.54006 47.3316 5.50887 46.8014 5.4762 46.2876C5.32174 43.7643 5.16134 41.1548 6.75195 40.6484C6.9569 40.5652 7.17077 40.5192 7.39205 40.5103C7.61334 40.5014 7.83018 40.5311 8.04107 40.5964C8.25196 40.6618 8.44652 40.7628 8.62325 40.8949C8.80147 41.0286 8.94999 41.1875 9.07326 41.3717C9.48316 40.84 10.2837 39.9964 11.1733 40.0439C11.7287 40.0736 12.2129 40.4271 12.6139 41.0984C13.0802 40.6395 14.0292 39.8583 14.999 40.0053C15.2441 40.0484 15.4713 40.139 15.6793 40.2756C15.8872 40.4123 16.0595 40.5845 16.1961 40.7939C16.6565 37.932 17.7718 31.9765 19.1085 31.6468C19.2926 31.5978 19.4545 31.6394 19.5941 31.7716C20.6263 32.7087 19.5481 40.7494 19.1679 43.344C19.3654 43.7791 20.2194 45.7781 20.0308 47.2782C19.8689 48.5717 19.2808 51.6802 17.3129 53.1594C18.7996 61.9174 19.8303 70.1556 20.2996 77.0512C26.4036 71.5397 30.9259 67.5907 33.7507 65.3095C41.8923 58.7332 51.5563 58.7926 51.6573 58.7941C51.7226 58.7941 51.782 58.8149 51.834 58.855C51.886 58.8951 51.9216 58.9456 51.9394 59.008C51.9959 59.2055 53.3162 63.903 51.7449 70.1095C50.8063 73.2046 49.4473 76.1007 47.6652 78.7992C40.2691 89.9676 25.9714 96.4711 15.6718 97.1231C15.1075 97.1588 14.5594 97.1766 14.0263 97.1766ZM7.50047 41.1177C7.30592 41.1207 7.11581 41.1534 6.93166 41.2142C5.78363 41.5796 5.92917 43.9544 6.07026 46.2519C6.10145 46.7687 6.13412 47.3034 6.15195 47.8098C6.24254 49.2074 6.63462 50.5143 7.32819 51.7307C7.36235 51.7945 7.37275 51.8614 7.3579 51.9312C4.62817 65.6496 3.54549 78.1502 4.13955 89.0869C4.20787 90.3612 4.31332 92.286 5.63511 93.8201C7.39651 95.8637 10.9475 96.8261 15.6332 96.5291C25.7858 95.886 39.8785 89.4775 47.1676 78.471C48.9157 75.8244 50.2493 72.9833 51.1701 69.9491C51.6187 68.2219 51.8637 66.4679 51.9053 64.6842C51.9484 62.9006 51.7865 61.1362 51.4226 59.3911C49.933 59.4268 41.4037 59.8916 34.122 65.7714C31.2363 68.1016 26.5655 72.1843 20.2387 77.9037C20.1466 77.9868 20.0427 78.0061 19.9283 77.9586C19.8125 77.9126 19.7516 77.8264 19.7427 77.7017C19.2926 70.6576 18.2382 62.1431 16.6921 53.0762C16.6713 52.9515 16.7129 52.852 16.8184 52.7807C18.7119 51.4886 19.2808 48.4514 19.4367 47.2039C19.6238 45.7202 18.5991 43.537 18.5887 43.5148C18.5634 43.4613 18.5545 43.4034 18.5634 43.344C19.2867 38.4266 19.7308 32.8439 19.2139 32.235C18.4565 32.5528 17.2996 37.3766 16.6461 41.7459C16.6372 41.8113 16.6075 41.8677 16.56 41.9152C16.5124 41.9613 16.456 41.9895 16.3892 41.9969C16.3223 42.0058 16.2614 41.9925 16.2035 41.9583C16.1456 41.9256 16.104 41.8781 16.0788 41.8157C15.7698 41.0746 15.3763 40.6632 14.907 40.5934C14.0753 40.4672 13.0832 41.4177 12.7728 41.7949C12.7401 41.8336 12.7 41.8633 12.654 41.8811C12.6065 41.9004 12.5574 41.9063 12.5069 41.9004C12.4565 41.8944 12.4104 41.8766 12.3703 41.8469C12.3287 41.8172 12.2975 41.7786 12.2753 41.734C11.9381 41.0286 11.5564 40.6588 11.1391 40.638C10.3698 40.5964 9.54108 41.6776 9.28415 42.0979C9.21732 42.2034 9.12227 42.2509 8.99751 42.2375C8.87276 42.2242 8.78959 42.1573 8.74949 42.0385C8.70494 41.9078 8.64107 41.786 8.55939 41.6746C8.47622 41.5633 8.37969 41.4652 8.2683 41.3836C8.15691 41.3019 8.03513 41.238 7.90444 41.192C7.77374 41.1474 7.63859 41.1222 7.50047 41.1177Z" fill="#090817"/>
<path d="M89.7364 70.7126C86.8671 67.8017 83.5953 64.0547 77.6665 61.9353C74.7095 60.8928 71.665 60.4027 68.5298 60.4635L78.0036 85.4454C81.1878 99.8946 90.4181 109.737 99.7672 110.055C104.181 110.203 111.801 108.339 114.813 102.531C116.619 99.051 116.073 95.5 115.911 94.5376C114.302 84.9405 104.116 85.3088 89.7364 70.7126Z" fill="white"/>
<path d="M100.253 110.36C100.083 110.36 99.9186 110.357 99.7567 110.352C95.0903 110.193 90.3304 107.671 86.3517 103.247C82.2586 98.6966 79.2734 92.5704 77.7184 85.5307L68.2505 60.5681C68.2342 60.5236 68.2282 60.476 68.2342 60.4285C68.2401 60.381 68.2565 60.3364 68.2832 60.2963C68.3099 60.2562 68.3456 60.225 68.3886 60.2013C68.4302 60.179 68.4763 60.1671 68.5253 60.1656C71.6946 60.1047 74.7763 60.6008 77.7674 61.6553C83.2388 63.6112 86.5328 66.9974 89.1824 69.7182C89.4408 69.9855 89.6977 70.2469 89.9487 70.5038C96.3067 76.9569 101.782 80.4351 106.182 83.2317C111.666 86.7159 115.289 89.0193 116.205 94.4862C116.704 97.4565 116.313 100.286 115.079 102.666C112.121 108.37 104.788 110.36 100.253 110.36ZM68.9589 60.7582L78.2813 85.3421C78.2872 85.3554 78.2917 85.3688 78.2947 85.3837C79.8259 92.3327 82.765 98.3744 86.7942 102.852C90.6646 107.153 95.2745 109.605 99.7775 109.758C104.102 109.907 111.608 108.064 114.55 102.395C115.727 100.13 116.095 97.4313 115.618 94.5872C114.746 89.3802 111.212 87.1347 105.862 83.7351C101.438 80.9237 95.9309 77.4247 89.5254 70.9241C89.2715 70.6672 89.016 70.4043 88.7546 70.1355C86.016 67.3197 82.9105 64.128 77.5684 62.2181C74.7823 61.2335 71.9129 60.7463 68.9589 60.7582Z" fill="#090817"/>
<path d="M80.2273 66.5669C77.0669 62.8926 72.2802 61.1817 68.0356 60.3649C67.8114 60.3203 67.5931 60.2565 67.3792 60.1733C67.1653 60.0916 66.9604 59.9906 66.7643 59.8733C66.5683 59.756 66.3841 59.6223 66.2104 59.4723C66.0381 59.3223 65.8792 59.1589 65.7336 58.9822C65.5896 58.8055 65.4604 58.6168 65.349 58.4178C65.2361 58.2188 65.1411 58.0109 65.0653 57.7956C64.9881 57.5787 64.9317 57.3589 64.893 57.1332C64.8544 56.9074 64.8366 56.6802 64.8366 56.4515V45.0068H52.9241V56.0653C52.9256 56.3089 52.9048 56.551 52.8632 56.7916C52.8216 57.0322 52.7593 57.2668 52.6776 57.497C52.5959 57.7258 52.4949 57.947 52.3746 58.1594C52.2543 58.3718 52.1162 58.5708 51.9617 58.7594C51.8058 58.948 51.6365 59.1218 51.4508 59.2807C51.2667 59.4396 51.0692 59.5807 50.8598 59.7055C50.6503 59.8302 50.432 59.9357 50.2033 60.0233C49.9761 60.1109 49.7429 60.1763 49.5023 60.2238C45.3498 61.0169 40.9671 62.6654 38.028 66.0204C34.3537 70.2145 34.9893 74.5586 35.5938 88.9097C35.87 95.4637 36.1611 104.611 36.2027 115.698H80.3328C81.2268 104.863 81.8595 95.2498 82.3155 87.1275C83.0447 74.1695 83.2452 70.0749 80.2273 66.5669Z" fill="white"/>
<path d="M80.3309 115.994H36.2009C36.1192 115.994 36.0494 115.965 35.9915 115.906C35.9335 115.848 35.9038 115.778 35.9038 115.697C35.8697 106.711 35.6662 97.7025 35.2949 88.9192C35.234 87.4623 35.1717 86.1078 35.1152 84.8469C34.5969 73.5018 34.4231 69.679 37.8034 65.822C40.3638 62.9007 44.2802 60.9165 49.4455 59.9304C49.6683 59.8873 49.8851 59.8249 50.096 59.7432C50.3084 59.663 50.5119 59.565 50.7064 59.4492C50.901 59.3333 51.0837 59.2012 51.256 59.0526C51.4282 58.9056 51.5857 58.7437 51.7297 58.5685C51.8738 58.3947 52.0015 58.2076 52.1144 58.0115C52.2258 57.814 52.3193 57.6091 52.3966 57.3952C52.4723 57.1828 52.5302 56.9645 52.5688 56.7403C52.6074 56.5175 52.6268 56.2917 52.6268 56.066V45.0075C52.6268 44.9258 52.655 44.856 52.7129 44.7966C52.7708 44.7387 52.8406 44.7104 52.9238 44.7104H64.8363C64.9179 44.7104 64.9877 44.7387 65.0457 44.7966C65.1036 44.856 65.1333 44.9258 65.1333 45.0075V56.4521C65.1318 56.663 65.1496 56.8739 65.1853 57.0818C65.2194 57.2912 65.2729 57.4947 65.3442 57.6952C65.414 57.8942 65.5016 58.0858 65.6056 58.27C65.7095 58.4556 65.8283 58.6294 65.962 58.7927C66.0957 58.9576 66.2427 59.1076 66.4031 59.2472C66.5635 59.3853 66.7343 59.5086 66.9155 59.6185C67.0967 59.7269 67.2853 59.8205 67.4828 59.8962C67.6803 59.972 67.8838 60.0314 68.0902 60.073C73.6106 61.1363 77.7705 63.2557 80.4512 66.3745C83.576 70.0057 83.3325 74.3246 82.6121 87.1445C82.079 96.6168 81.4107 106.233 80.6265 115.723C80.6205 115.799 80.5879 115.864 80.5314 115.916C80.475 115.967 80.4082 115.994 80.3309 115.994ZM36.4979 115.4H80.0577C80.8314 106.003 81.4909 96.4861 82.0196 87.1088C82.731 74.4686 82.9716 70.2092 80.0027 66.7606C77.4111 63.7472 73.3655 61.6933 67.9803 60.6551C67.7397 60.6076 67.5036 60.5393 67.2749 60.4502C67.0447 60.3626 66.8249 60.2541 66.614 60.1279C66.4031 60.0017 66.2041 59.8576 66.0184 59.6972C65.8328 59.5368 65.662 59.3601 65.5061 59.17C65.3501 58.9799 65.212 58.7779 65.0917 58.564C64.9699 58.3487 64.8689 58.1259 64.7872 57.8942C64.7041 57.6625 64.6432 57.4264 64.6016 57.1828C64.56 56.9407 64.5392 56.6972 64.5407 56.4506V45.303H53.2208V56.0645C53.2223 56.3259 53.2 56.5843 53.1555 56.8412C53.1109 57.0982 53.0441 57.3507 52.9565 57.5957C52.8688 57.8422 52.7604 58.0784 52.6312 58.3056C52.502 58.5314 52.355 58.7467 52.1886 58.9472C52.0223 59.1492 51.8411 59.3348 51.6436 59.5056C51.4446 59.6749 51.2337 59.8264 51.0094 59.9601C50.7852 60.0937 50.5505 60.2066 50.3069 60.3002C50.0634 60.3923 49.8139 60.465 49.5569 60.514C44.5252 61.4764 40.7217 63.3938 38.2504 66.2141C35.0276 69.8928 35.1999 73.6533 35.7093 84.8202C35.7657 86.0826 35.8281 87.4356 35.889 88.8955C36.2558 97.5896 36.4608 106.505 36.4979 115.4Z" fill="#090817"/>
<path d="M51.5217 58.7915C51.5217 58.7915 53.2147 62.249 58.6237 62.5237C64.0312 62.797 66.4475 59.2831 66.4475 59.2831C66.4475 59.2831 80.5625 61.6207 82.7709 68.9871C84.9808 76.3535 82.7709 118.859 82.7709 118.859H35.1285C35.1285 118.859 31.616 72.0688 35.1285 66.8455C38.6394 61.6222 48.2068 59.1999 51.5217 58.7915Z" fill="#5865F2"/>
<path d="M51.5219 58.7915C51.5219 58.7915 43.4456 58.8004 37.698 62.4584C31.9504 66.1148 20.8682 76.5124 20.8682 76.5124L25.1588 95.2166C28.5658 94.3076 31.8569 93.0883 35.0336 91.5601C36.4044 90.8992 37.6846 90.2145 38.8743 89.5224C41.2772 81.8427 43.6802 74.1614 46.0847 66.4817L51.5219 58.7915Z" fill="#5865F2"/>
<path d="M66.4458 59.2847C66.4458 59.2847 78.2142 59.6634 84.4846 64.6001C90.7534 69.5382 102.118 79.6358 102.118 79.6358L92.7109 87.6884L78.3152 86.7691L68.5295 77.6101L67.9488 62.8758L66.4458 59.2847Z" fill="#5865F2"/>
<path d="M78.4639 122.837H73.0906C72.8544 122.837 72.6272 122.796 72.4074 122.711C72.1876 122.625 71.9915 122.503 71.8163 122.346C71.6425 122.187 71.5029 122.003 71.3975 121.792C71.292 121.581 71.2282 121.358 71.2074 121.124L70.2984 111.488C70.2866 111.356 70.2881 111.225 70.3029 111.094C70.3178 110.964 70.346 110.836 70.3876 110.711C70.4291 110.586 70.4841 110.466 70.5509 110.353C70.6178 110.239 70.695 110.133 70.7826 110.037C70.8717 109.939 70.9697 109.853 71.0767 109.775C71.1836 109.698 71.2965 109.633 71.4168 109.579C71.5386 109.526 71.6618 109.486 71.791 109.459C71.9202 109.432 72.0509 109.417 72.1816 109.417H79.3713C79.5035 109.417 79.6327 109.432 79.7619 109.459C79.8911 109.486 80.0159 109.526 80.1362 109.579C80.2565 109.633 80.3708 109.698 80.4763 109.775C80.5832 109.853 80.6812 109.939 80.7703 110.037C80.8594 110.133 80.9367 110.239 81.0035 110.353C81.0688 110.466 81.1238 110.586 81.1654 110.711C81.207 110.836 81.2352 110.964 81.25 111.094C81.2649 111.225 81.2664 111.356 81.2545 111.488L80.347 121.124C80.3248 121.358 80.2609 121.581 80.1555 121.792C80.05 122.003 79.9104 122.187 79.7366 122.346C79.5629 122.503 79.3654 122.625 79.1456 122.711C78.9272 122.796 78.6985 122.837 78.4639 122.837Z" fill="white"/>
<path d="M78.4643 123.136H73.0909C72.9558 123.136 72.8206 123.124 72.6885 123.099C72.5548 123.075 72.4256 123.038 72.2993 122.991C72.1731 122.942 72.0528 122.882 71.937 122.811C71.8226 122.74 71.7142 122.659 71.6147 122.567C71.5152 122.477 71.4246 122.377 71.3429 122.27C71.2612 122.162 71.1899 122.047 71.1305 121.926C71.0696 121.805 71.0221 121.679 70.985 121.55C70.9479 121.419 70.9241 121.287 70.9107 121.152L70.0033 111.515C69.9884 111.363 69.9899 111.212 70.0077 111.06C70.0256 110.909 70.0582 110.76 70.1058 110.616C70.1548 110.472 70.2172 110.334 70.2944 110.202C70.3716 110.071 70.4607 109.949 70.5632 109.836C70.6657 109.724 70.78 109.623 70.9033 109.533C71.0266 109.444 71.1587 109.369 71.2969 109.308C71.4365 109.245 71.5805 109.199 71.7305 109.168C71.879 109.137 72.0305 109.121 72.182 109.121H79.3717C79.5247 109.121 79.6747 109.137 79.8247 109.168C79.9732 109.199 80.1172 109.245 80.2568 109.308C80.3964 109.369 80.5271 109.444 80.6504 109.533C80.7752 109.623 80.888 109.724 80.9905 109.836C81.093 109.949 81.1821 110.071 81.2593 110.202C81.3366 110.334 81.3989 110.472 81.4479 110.616C81.4955 110.76 81.5296 110.909 81.546 111.06C81.5638 111.212 81.5653 111.363 81.5504 111.515L80.643 121.152C80.6311 121.286 80.6059 121.419 80.5702 121.548C80.5331 121.679 80.4841 121.804 80.4247 121.926C80.3638 122.047 80.2925 122.162 80.2123 122.269C80.1306 122.377 80.04 122.477 79.939 122.567C79.8395 122.659 79.7326 122.74 79.6167 122.811C79.5024 122.882 79.3806 122.942 79.2544 122.991C79.1281 123.038 78.9989 123.075 78.8667 123.099C78.7331 123.124 78.5994 123.136 78.4643 123.136ZM72.1835 109.716C72.0721 109.716 71.9622 109.727 71.8538 109.75C71.7454 109.773 71.6414 109.807 71.5389 109.851C71.438 109.897 71.3414 109.952 71.2523 110.016C71.1617 110.082 71.08 110.154 71.0043 110.237C70.93 110.319 70.8647 110.408 70.8082 110.503C70.7533 110.6 70.7073 110.699 70.6716 110.805C70.6375 110.91 70.6122 111.019 70.6003 111.129C70.587 111.238 70.587 111.348 70.5974 111.46L71.5048 121.097C71.5226 121.294 71.5761 121.482 71.6637 121.66C71.7528 121.838 71.8701 121.994 72.0172 122.128C72.1642 122.261 72.3305 122.364 72.5162 122.435C72.7003 122.506 72.8934 122.542 73.0924 122.541H78.4657C78.6647 122.542 78.8563 122.506 79.042 122.435C79.2276 122.364 79.3925 122.261 79.5395 122.128C79.6865 121.994 79.8054 121.838 79.893 121.66C79.9821 121.482 80.0341 121.294 80.0519 121.097L80.9608 111.46C80.9712 111.348 80.9697 111.238 80.9564 111.129C80.9445 111.019 80.9207 110.91 80.8851 110.805C80.8494 110.699 80.8049 110.6 80.7484 110.503C80.692 110.408 80.6266 110.319 80.5524 110.237C80.4781 110.154 80.395 110.082 80.3044 110.016C80.2153 109.951 80.1187 109.896 80.0177 109.851C79.9167 109.807 79.8113 109.773 79.7029 109.75C79.5945 109.727 79.4846 109.716 79.3732 109.716H72.1835Z" fill="#090817"/>
<path d="M100.087 122.837H94.7126C94.4779 122.837 94.2507 122.796 94.0309 122.711C93.8111 122.625 93.6136 122.503 93.4398 122.346C93.2661 122.187 93.1264 122.003 93.021 121.792C92.9156 121.581 92.8517 121.358 92.8294 121.124L91.922 111.488C91.9101 111.356 91.9116 111.225 91.9264 111.094C91.9413 110.964 91.9695 110.836 92.0111 110.711C92.0527 110.586 92.1076 110.466 92.1745 110.353C92.2398 110.239 92.3185 110.133 92.4061 110.037C92.4953 109.939 92.5933 109.853 92.7002 109.775C92.8071 109.698 92.92 109.633 93.0403 109.579C93.1606 109.526 93.2854 109.486 93.4146 109.459C93.5438 109.432 93.6745 109.417 93.8052 109.417H100.995C101.127 109.417 101.256 109.432 101.385 109.459C101.515 109.486 101.639 109.526 101.76 109.579C101.88 109.633 101.994 109.698 102.1 109.775C102.207 109.853 102.305 109.939 102.394 110.037C102.483 110.133 102.56 110.239 102.627 110.353C102.694 110.466 102.747 110.586 102.789 110.711C102.83 110.836 102.859 110.964 102.874 111.094C102.888 111.225 102.89 111.356 102.878 111.488L101.971 121.124C101.948 121.358 101.884 121.581 101.779 121.792C101.674 122.003 101.534 122.187 101.36 122.346C101.186 122.505 100.989 122.626 100.769 122.711C100.549 122.796 100.322 122.837 100.087 122.837Z" fill="white"/>
<path d="M100.086 123.136H94.7114C94.5763 123.136 94.4426 123.124 94.3089 123.099C94.1768 123.075 94.0476 123.038 93.9213 122.991C93.7951 122.942 93.6733 122.882 93.5589 122.811C93.4431 122.74 93.3362 122.659 93.2367 122.567C93.1357 122.477 93.0451 122.377 92.9649 122.27C92.8832 122.162 92.8119 122.047 92.751 121.926C92.6916 121.805 92.6426 121.679 92.6069 121.55C92.5698 121.419 92.5446 121.287 92.5327 121.152L91.6238 111.515C91.6104 111.363 91.6119 111.212 91.6282 111.06C91.646 110.909 91.6787 110.76 91.7277 110.616C91.7753 110.472 91.8376 110.334 91.9149 110.202C91.9921 110.071 92.0827 109.949 92.1852 109.836C92.2876 109.724 92.4005 109.623 92.5238 109.533C92.647 109.444 92.7792 109.369 92.9188 109.308C93.0569 109.245 93.2025 109.199 93.351 109.168C93.4995 109.137 93.651 109.121 93.8025 109.121H100.992C101.145 109.121 101.295 109.137 101.445 109.168C101.594 109.199 101.738 109.245 101.877 109.308C102.017 109.369 102.148 109.444 102.272 109.533C102.396 109.623 102.509 109.724 102.611 109.836C102.713 109.949 102.804 110.071 102.881 110.202C102.957 110.334 103.021 110.472 103.068 110.616C103.117 110.76 103.15 110.909 103.166 111.06C103.184 111.212 103.186 111.363 103.171 111.515L102.266 121.152C102.255 121.287 102.229 121.419 102.192 121.55C102.155 121.679 102.108 121.805 102.047 121.926C101.987 122.047 101.916 122.162 101.834 122.27C101.753 122.377 101.662 122.477 101.562 122.569C101.461 122.659 101.355 122.741 101.239 122.811C101.124 122.882 101.004 122.942 100.878 122.991C100.752 123.04 100.621 123.075 100.489 123.1C100.355 123.124 100.221 123.136 100.086 123.136ZM93.804 109.716C93.6926 109.716 93.5827 109.727 93.4743 109.75C93.3659 109.773 93.2604 109.807 93.1594 109.851C93.0584 109.897 92.9619 109.952 92.8728 110.016C92.7822 110.082 92.7005 110.154 92.6248 110.237C92.5505 110.319 92.4852 110.408 92.4287 110.503C92.3723 110.6 92.3277 110.699 92.2921 110.805C92.2564 110.91 92.2327 111.019 92.2208 111.129C92.2074 111.238 92.206 111.348 92.2163 111.46L93.1253 121.097C93.1431 121.294 93.1966 121.482 93.2842 121.66C93.3733 121.838 93.4906 121.994 93.6376 122.128C93.7847 122.261 93.9495 122.364 94.1352 122.435C94.3208 122.506 94.5124 122.542 94.7114 122.541H100.086C100.284 122.542 100.477 122.506 100.662 122.435C100.847 122.364 101.013 122.261 101.16 122.128C101.307 121.994 101.424 121.838 101.513 121.66C101.601 121.482 101.655 121.294 101.672 121.097L102.581 111.46C102.592 111.348 102.59 111.238 102.577 111.129C102.565 111.019 102.541 110.91 102.506 110.805C102.47 110.699 102.425 110.6 102.369 110.503C102.312 110.408 102.247 110.319 102.173 110.237C102.097 110.154 102.015 110.082 101.925 110.016C101.836 109.951 101.739 109.896 101.638 109.851C101.536 109.807 101.432 109.773 101.323 109.75C101.215 109.727 101.105 109.716 100.994 109.716H93.804Z" fill="#090817"/>
<path d="M71.0752 84.5238C71.0752 84.5238 68.0128 73.8915 69.997 72.8548C71.9812 71.8167 82.2258 78.6886 82.2258 78.6886L71.0752 84.5238Z" fill="white"/>
<path d="M71.0756 84.8204C71.034 84.8204 70.9954 84.813 70.9582 84.7967C70.8721 84.7596 70.8157 84.6957 70.7889 84.6051C70.2676 82.7917 67.7651 73.6847 69.8607 72.5901C71.9414 71.5045 81.3276 77.7288 82.391 78.4417C82.4356 78.4714 82.4682 78.5085 82.492 78.556C82.5158 78.6021 82.5262 78.6526 82.5232 78.7046C82.5202 78.7565 82.5039 78.8055 82.4757 78.8501C82.4474 78.8932 82.4103 78.9273 82.3643 78.9526L71.2137 84.7863C71.1706 84.8101 71.1246 84.8204 71.0756 84.8204ZM70.5528 73.0357C70.4072 73.0298 70.2691 73.0565 70.1369 73.1174C69.4627 73.4694 69.1879 76.7605 71.2627 84.0912L81.6455 78.6585C78.0246 76.2674 72.4434 73.0357 70.5528 73.0357Z" fill="#090817"/>
<path d="M103.425 84.5238C103.425 84.5238 106.489 73.8915 104.504 72.8548C102.518 71.8167 92.2749 78.6886 92.2749 78.6886L103.425 84.5238Z" fill="white"/>
<path d="M103.426 84.8206C103.378 84.8206 103.332 84.8102 103.288 84.7864L92.1369 78.9527C92.0909 78.9274 92.0538 78.8933 92.0256 78.8502C91.9973 78.8057 91.981 78.7567 91.978 78.7047C91.9751 78.6527 91.9855 78.6022 92.0092 78.5562C92.033 78.5086 92.0657 78.4715 92.1102 78.4418C93.1736 77.7289 102.56 71.5016 104.642 72.5903C106.736 73.6848 104.235 82.7918 103.712 84.6052C103.686 84.6958 103.629 84.7597 103.543 84.7968C103.506 84.8131 103.467 84.8206 103.426 84.8206ZM92.8587 78.6586L103.241 84.0913C105.316 76.7621 105.042 73.4695 104.367 73.1175C103.081 72.4462 96.8048 76.0522 92.8587 78.6586Z" fill="#090817"/>
<path d="M108.936 97.3598C108.936 98.0771 108.9 98.793 108.831 99.5074C108.759 100.222 108.654 100.932 108.514 101.636C108.375 102.34 108.201 103.035 107.991 103.721C107.783 104.408 107.541 105.083 107.267 105.745C106.993 106.409 106.686 107.056 106.347 107.689C106.01 108.323 105.642 108.938 105.242 109.534C104.844 110.131 104.417 110.707 103.962 111.261C103.506 111.816 103.025 112.347 102.517 112.854C102.009 113.362 101.479 113.844 100.924 114.3C100.37 114.754 99.7933 115.182 99.1963 115.58C98.6007 115.978 97.9859 116.348 97.3517 116.685C96.719 117.023 96.0715 117.331 95.4076 117.604C94.7453 117.879 94.071 118.121 93.3834 118.329C92.6972 118.538 92.0022 118.712 91.2982 118.852C90.5942 118.991 89.8843 119.097 89.17 119.168C88.4571 119.238 87.7397 119.273 87.0224 119.273C86.3051 119.273 85.5892 119.238 84.8749 119.168C84.1605 119.097 83.4521 118.991 82.7481 118.852C82.0442 118.712 81.3491 118.538 80.6615 118.329C79.9753 118.121 79.2996 117.879 78.6372 117.604C77.9748 117.331 77.3258 117.023 76.6931 116.685C76.0604 116.348 75.4456 115.978 74.8486 115.58C74.2515 115.182 73.6768 114.754 73.1213 114.3C72.5673 113.844 72.0357 113.362 71.5277 112.854C71.0213 112.347 70.5386 111.816 70.0842 111.261C69.6282 110.707 69.202 110.131 68.8025 109.534C68.4044 108.938 68.0361 108.323 67.6975 107.689C67.3589 107.056 67.0529 106.409 66.7782 105.745C66.5034 105.083 66.2614 104.408 66.0534 103.721C65.8455 103.035 65.6717 102.34 65.5307 101.636C65.391 100.932 65.2856 100.222 65.2158 99.5074C65.146 98.793 65.1104 98.0771 65.1104 97.3598C65.1104 96.6425 65.146 95.9266 65.2158 95.2123C65.2856 94.4979 65.391 93.7895 65.5307 93.0855C65.6717 92.3816 65.8455 91.6865 66.0534 90.9989C66.2614 90.3127 66.5034 89.637 66.7782 88.9746C67.0529 88.3122 67.3589 87.6632 67.6975 87.0305C68.0361 86.3978 68.4044 85.783 68.8025 85.186C69.202 84.5889 69.6282 84.0142 70.0842 83.4587C70.5386 82.9047 71.0213 82.3731 71.5277 81.8651C72.0357 81.3587 72.5673 80.876 73.1213 80.4216C73.6768 79.9656 74.2515 79.5394 74.8486 79.1399C75.4456 78.7418 76.0604 78.3735 76.6931 78.0349C77.3258 77.6963 77.9748 77.3903 78.6372 77.1156C79.2996 76.8408 79.9753 76.5988 80.6615 76.3908C81.3491 76.1829 82.0442 76.0091 82.7481 75.8681C83.4521 75.7284 84.1605 75.623 84.8749 75.5532C85.5892 75.4834 86.3051 75.4478 87.0224 75.4478C87.7397 75.4478 88.4571 75.4834 89.17 75.5532C89.8843 75.623 90.5942 75.7284 91.2982 75.8681C92.0022 76.0091 92.6972 76.1829 93.3834 76.3908C94.071 76.5988 94.7453 76.8408 95.4076 77.1156C96.0715 77.3903 96.719 77.6963 97.3517 78.0349C97.9859 78.3735 98.6007 78.7418 99.1963 79.1399C99.7933 79.5394 100.37 79.9656 100.924 80.4216C101.479 80.876 102.009 81.3587 102.517 81.8651C103.025 82.3731 103.506 82.9047 103.962 83.4587C104.417 84.0142 104.844 84.5889 105.242 85.186C105.642 85.783 106.01 86.3978 106.347 87.0305C106.686 87.6632 106.993 88.3122 107.267 88.9746C107.541 89.637 107.783 90.3127 107.991 90.9989C108.201 91.6865 108.375 92.3816 108.514 93.0855C108.654 93.7895 108.759 94.4979 108.831 95.2123C108.9 95.9266 108.936 96.6425 108.936 97.3598Z" fill="white"/>
<path d="M87.0231 119.57C86.2953 119.57 85.5706 119.534 84.8458 119.463C84.1225 119.391 83.4037 119.284 82.6908 119.143C81.9765 119.001 81.2725 118.824 80.576 118.613C79.8794 118.402 79.1963 118.157 78.5235 117.879C77.8522 117.6 77.1958 117.29 76.5542 116.947C75.9126 116.604 75.2888 116.231 74.6843 115.827C74.0799 115.423 73.4962 114.989 72.9333 114.529C72.3719 114.067 71.8328 113.578 71.319 113.065C70.8036 112.551 70.3165 112.012 69.8546 111.45C69.3942 110.887 68.9605 110.304 68.5566 109.699C68.1526 109.095 67.7783 108.471 67.4368 107.829C67.0937 107.188 66.7818 106.531 66.5041 105.859C66.2264 105.187 65.9813 104.503 65.7704 103.808C65.558 103.111 65.3828 102.406 65.2402 101.693C65.0976 100.98 64.9922 100.261 64.9209 99.5362C64.8496 98.813 64.814 98.0867 64.814 97.3605C64.814 96.6328 64.8496 95.9065 64.9209 95.1832C64.9922 94.4585 65.0976 93.7397 65.2402 93.0268C65.3828 92.3139 65.558 91.6085 65.7704 90.9134C65.9813 90.2169 66.2264 89.5322 66.5041 88.8609C66.7818 88.1881 67.0937 87.5317 67.4368 86.8901C67.7783 86.2485 68.1526 85.6262 68.5566 85.0203C68.9605 84.4158 69.3927 83.8322 69.8546 83.2708C70.3165 82.7079 70.8036 82.1688 71.319 81.6549C71.8328 81.141 72.3719 80.6524 72.9333 80.192C73.4962 79.7301 74.0799 79.2965 74.6843 78.8925C75.2888 78.4885 75.9126 78.1158 76.5542 77.7727C77.1958 77.4296 77.8522 77.1192 78.5235 76.84C79.1963 76.5623 79.8794 76.3172 80.576 76.1063C81.2725 75.8955 81.9765 75.7187 82.6908 75.5761C83.4037 75.4351 84.1225 75.3281 84.8458 75.2568C85.5706 75.1855 86.2953 75.1499 87.0231 75.1499C87.7508 75.1499 88.477 75.1855 89.2003 75.2568C89.9236 75.3281 90.6424 75.4351 91.3568 75.5761C92.0696 75.7187 92.7751 75.8955 93.4701 76.1063C94.1667 76.3172 94.8513 76.5623 95.5226 76.84C96.1954 77.1192 96.8519 77.4296 97.4934 77.7727C98.135 78.1158 98.7573 78.4885 99.3633 78.8925C99.9677 79.2965 100.551 79.7301 101.113 80.192C101.676 80.6524 102.213 81.141 102.729 81.6549C103.242 82.1688 103.731 82.7079 104.192 83.2708C104.653 83.8322 105.086 84.4158 105.49 85.0203C105.895 85.6262 106.268 86.2485 106.611 86.8901C106.954 87.5317 107.264 88.1881 107.542 88.8609C107.821 89.5322 108.066 90.2169 108.277 90.9134C108.488 91.6085 108.665 92.3139 108.806 93.0268C108.948 93.7397 109.055 94.4585 109.127 95.1832C109.198 95.9065 109.234 96.6328 109.234 97.3605C109.232 98.0867 109.197 98.813 109.124 99.5362C109.052 100.26 108.946 100.978 108.803 101.691C108.66 102.404 108.482 103.108 108.271 103.805C108.06 104.5 107.814 105.184 107.536 105.856C107.257 106.527 106.946 107.183 106.603 107.825C106.26 108.465 105.886 109.089 105.482 109.693C105.078 110.298 104.646 110.881 104.184 111.443C103.722 112.006 103.235 112.543 102.721 113.057C102.206 113.571 101.668 114.06 101.107 114.52C100.544 114.982 99.9618 115.414 99.3573 115.82C98.7514 116.224 98.1291 116.596 97.4875 116.939C96.8474 117.282 96.191 117.594 95.5182 117.872C94.8469 118.151 94.1637 118.396 93.4672 118.607C92.7721 118.82 92.0682 118.996 91.3553 119.139C90.6409 119.281 89.9236 119.388 89.1988 119.461C88.4755 119.532 87.7508 119.57 87.0231 119.57ZM87.0231 75.7455C86.3161 75.7455 85.6092 75.7796 84.9052 75.8494C84.1998 75.9177 83.5003 76.0217 82.8067 76.1598C82.1116 76.2979 81.427 76.4702 80.7483 76.6752C80.071 76.8816 79.4057 77.1192 78.7522 77.3895C78.0972 77.6613 77.4586 77.9628 76.8334 78.297C76.2096 78.6311 75.6037 78.995 75.014 79.3871C74.4259 79.7806 73.8586 80.2024 73.3106 80.6509C72.764 81.1009 72.2398 81.5747 71.7393 82.0752C71.2388 82.5757 70.7635 83.1 70.315 83.648C69.865 84.1945 69.4447 84.7633 69.0511 85.3515C68.6576 85.9396 68.2937 86.547 67.961 87.1708C67.6269 87.7946 67.3239 88.4347 67.0536 89.0881C66.7818 89.7431 66.5442 90.4084 66.3392 91.0857C66.1328 91.7629 65.962 92.4491 65.8239 93.1426C65.6858 93.8377 65.5818 94.5372 65.512 95.2412C65.4422 95.9466 65.408 96.6521 65.408 97.3605C65.408 98.0674 65.4422 98.7744 65.512 99.4783C65.5818 100.184 65.6858 100.883 65.8239 101.577C65.962 102.272 66.1328 102.958 66.3392 103.635C66.5442 104.313 66.7818 104.978 67.0536 105.631C67.3239 106.286 67.6269 106.925 67.961 107.55C68.2937 108.174 68.6576 108.78 69.0511 109.369C69.4447 109.958 69.865 110.525 70.315 111.073C70.7635 111.62 71.2388 112.144 71.7393 112.644C72.2398 113.145 72.764 113.62 73.3106 114.069C73.8586 114.519 74.4259 114.939 75.014 115.332C75.6037 115.726 76.2096 116.09 76.8334 116.423C77.4586 116.757 78.0972 117.06 78.7522 117.33C79.4057 117.602 80.071 117.839 80.7483 118.044C81.4255 118.251 82.1116 118.422 82.8067 118.56C83.5003 118.698 84.1998 118.802 84.9052 118.872C85.6092 118.941 86.3161 118.976 87.0231 118.976C87.7315 118.976 88.4369 118.941 89.1424 118.872C89.8463 118.802 90.5459 118.698 91.2409 118.56C91.9345 118.422 92.6206 118.251 93.2979 118.044C93.9751 117.839 94.6419 117.602 95.2954 117.33C95.9489 117.06 96.589 116.757 97.2127 116.424C97.8365 116.09 98.4439 115.726 99.0321 115.332C99.6202 114.939 100.189 114.519 100.736 114.069C101.284 113.62 101.808 113.145 102.308 112.644C102.809 112.144 103.283 111.62 103.733 111.073C104.181 110.525 104.603 109.958 104.996 109.369C105.389 108.78 105.752 108.174 106.087 107.55C106.421 106.925 106.722 106.286 106.994 105.631C107.264 104.978 107.502 104.313 107.708 103.635C107.913 102.957 108.086 102.272 108.224 101.577C108.362 100.883 108.466 100.184 108.534 99.4783C108.604 98.7744 108.638 98.0674 108.638 97.3605C108.638 96.6521 108.602 95.9466 108.533 95.2426C108.463 94.5372 108.357 93.8392 108.219 93.1441C108.081 92.4505 107.909 91.7644 107.702 91.0886C107.496 90.4114 107.258 89.7461 106.987 89.0926C106.715 88.4376 106.413 87.799 106.079 87.1752C105.745 86.5515 105.381 85.9455 104.988 85.3574C104.595 84.7678 104.174 84.2005 103.725 83.6539C103.275 83.1074 102.801 82.5831 102.301 82.0826C101.8 81.5821 101.276 81.1069 100.73 80.6584C100.183 80.2098 99.6143 79.7881 99.0261 79.3945C98.438 79.0009 97.8321 78.6385 97.2083 78.3044C96.5845 77.9702 95.9444 77.6673 95.2909 77.397C94.6375 77.1252 93.9721 76.8861 93.2949 76.6811C92.6177 76.4747 91.933 76.3024 91.2379 76.1643C90.5444 76.0247 89.8449 75.9207 89.1409 75.8509C88.4369 75.7811 87.7315 75.7455 87.0231 75.744V75.7455Z" fill="#090817"/>
<path d="M95.6456 102.287C95.6456 102.477 95.6322 102.669 95.604 102.859C95.5758 103.049 95.5342 103.238 95.4792 103.425C95.4243 103.612 95.356 103.798 95.2743 103.98C95.1926 104.163 95.0975 104.343 94.9891 104.52C94.8807 104.696 94.7604 104.869 94.6267 105.038C94.4946 105.206 94.349 105.369 94.1916 105.528C94.0357 105.687 93.8678 105.841 93.6881 105.988C93.5084 106.137 93.3198 106.278 93.1193 106.413C92.9203 106.548 92.7109 106.676 92.4926 106.798C92.2743 106.918 92.0485 107.032 91.8139 107.138C91.5792 107.245 91.3371 107.343 91.0876 107.433C90.8381 107.523 90.5841 107.604 90.3228 107.677C90.0614 107.751 89.7955 107.815 89.5267 107.87C89.2564 107.926 88.9817 107.973 88.7054 108.01C88.4277 108.047 88.15 108.075 87.8678 108.093C87.5871 108.112 87.3049 108.121 87.0227 108.121C86.7405 108.121 86.4584 108.112 86.1777 108.093C85.897 108.075 85.6178 108.047 85.3415 108.01C85.0638 107.973 84.7905 107.926 84.5202 107.87C84.2499 107.815 83.9841 107.751 83.7227 107.677C83.4628 107.604 83.2073 107.523 82.9578 107.433C82.7098 107.343 82.4677 107.245 82.2331 107.138C81.9984 107.032 81.7712 106.918 81.5529 106.798C81.3346 106.676 81.1252 106.548 80.9261 106.413C80.7271 106.278 80.537 106.137 80.3573 105.988C80.1791 105.841 80.0113 105.687 79.8539 105.528C79.6964 105.369 79.5524 105.206 79.4187 105.038C79.285 104.869 79.1647 104.696 79.0563 104.52C78.9494 104.343 78.8543 104.163 78.7727 103.98C78.6895 103.798 78.6212 103.612 78.5662 103.425C78.5113 103.238 78.4697 103.049 78.4415 102.859C78.4147 102.669 78.4014 102.477 78.4014 102.287C78.4014 102.096 78.4147 101.906 78.443 101.716C78.4697 101.525 78.5113 101.337 78.5662 101.148C78.6212 100.961 78.6895 100.775 78.7727 100.593C78.8543 100.41 78.9494 100.23 79.0563 100.054C79.1647 99.8769 79.285 99.7047 79.4187 99.5368C79.5524 99.3675 79.6964 99.2042 79.8539 99.0452C80.0113 98.8863 80.1791 98.7334 80.3573 98.5848C80.537 98.4378 80.7271 98.2967 80.9261 98.1616C81.1252 98.0264 81.3346 97.8987 81.5529 97.7769C81.7712 97.6551 81.9984 97.5423 82.2331 97.4353C82.4677 97.3299 82.7098 97.2319 82.9578 97.1413C83.2073 97.0507 83.4628 96.969 83.7227 96.8962C83.9841 96.8234 84.2499 96.7596 84.5202 96.7031C84.7905 96.6482 85.0638 96.6021 85.3415 96.565C85.6178 96.5279 85.897 96.4997 86.1777 96.4804C86.4584 96.4611 86.7405 96.4521 87.0227 96.4521C87.3049 96.4521 87.5871 96.4611 87.8678 96.4804C88.15 96.4997 88.4277 96.5279 88.7054 96.565C88.9817 96.6021 89.2564 96.6482 89.5267 96.7031C89.7955 96.7596 90.0614 96.8234 90.3228 96.8962C90.5841 96.969 90.8381 97.0507 91.0876 97.1413C91.3371 97.2319 91.5792 97.3299 91.8139 97.4353C92.0485 97.5423 92.2743 97.6551 92.4926 97.7769C92.7109 97.8987 92.9203 98.0264 93.1193 98.1616C93.3198 98.2967 93.5084 98.4378 93.6881 98.5848C93.8678 98.7334 94.0357 98.8863 94.1916 99.0452C94.349 99.2042 94.4946 99.3675 94.6267 99.5368C94.7604 99.7047 94.8807 99.8769 94.9891 100.054C95.0975 100.23 95.1926 100.41 95.2743 100.593C95.356 100.775 95.4243 100.961 95.4792 101.148C95.5342 101.337 95.5758 101.525 95.604 101.716C95.6322 101.906 95.6456 102.096 95.6456 102.287Z" fill="white"/>
<path d="M87.0234 108.42C82.106 108.42 78.1035 105.669 78.1035 102.288C78.1035 98.9058 82.106 96.1553 87.0234 96.1553C91.9422 96.1553 95.9433 98.9058 95.9433 102.288C95.9433 105.668 91.9422 108.42 87.0234 108.42ZM87.0234 96.7493C82.4328 96.7493 78.6991 99.234 78.6991 102.288C78.6991 105.341 82.4328 107.824 87.0234 107.824C91.614 107.824 95.3492 105.341 95.3492 102.288C95.3492 99.234 91.614 96.7493 87.0234 96.7493Z" fill="#090817"/>
<path d="M84.5442 102.222C84.5442 102.355 84.5308 102.489 84.5041 102.62C84.4773 102.752 84.4387 102.88 84.3882 103.003C84.3363 103.128 84.2739 103.245 84.1996 103.356C84.1254 103.468 84.0407 103.572 83.9457 103.665C83.8506 103.76 83.7466 103.845 83.6353 103.919C83.5239 103.995 83.4065 104.057 83.2833 104.109C83.1585 104.16 83.0308 104.199 82.9001 104.225C82.7679 104.251 82.6357 104.264 82.5006 104.264C82.3669 104.264 82.2347 104.251 82.1026 104.225C81.9719 104.199 81.8442 104.16 81.7194 104.109C81.5961 104.057 81.4788 103.995 81.3674 103.919C81.2545 103.845 81.1521 103.76 81.057 103.665C80.962 103.572 80.8773 103.468 80.8031 103.356C80.7288 103.245 80.6664 103.128 80.6144 103.003C80.5639 102.88 80.5238 102.752 80.4986 102.62C80.4719 102.489 80.4585 102.355 80.4585 102.222C80.4585 102.088 80.4719 101.954 80.4986 101.824C80.5238 101.692 80.5639 101.564 80.6144 101.441C80.6664 101.316 80.7288 101.199 80.8031 101.087C80.8773 100.976 80.962 100.873 81.057 100.778C81.1521 100.683 81.2545 100.599 81.3674 100.524C81.4788 100.45 81.5961 100.386 81.7194 100.336C81.8442 100.284 81.9719 100.245 82.1026 100.218C82.2347 100.193 82.3669 100.18 82.5006 100.18C82.6357 100.18 82.7679 100.193 82.9001 100.218C83.0308 100.245 83.1585 100.284 83.2833 100.336C83.4065 100.386 83.5239 100.45 83.6353 100.524C83.7466 100.599 83.8506 100.683 83.9457 100.778C84.0407 100.873 84.1254 100.976 84.1996 101.087C84.2739 101.199 84.3363 101.316 84.3882 101.441C84.4387 101.564 84.4773 101.692 84.5041 101.824C84.5308 101.954 84.5442 102.088 84.5442 102.222Z" fill="#080717"/>
<path d="M92.7121 102.222C92.7121 102.355 92.6988 102.489 92.672 102.62C92.6468 102.752 92.6082 102.88 92.5562 103.003C92.5057 103.128 92.4418 103.245 92.3676 103.356C92.2933 103.468 92.2087 103.572 92.1136 103.665C92.0186 103.76 91.9161 103.845 91.8047 103.919C91.6933 103.995 91.5745 104.057 91.4512 104.109C91.328 104.16 91.2002 104.199 91.068 104.225C90.9359 104.251 90.8037 104.264 90.67 104.264C90.5349 104.264 90.4027 104.251 90.2705 104.225C90.1398 104.199 90.0121 104.16 89.8873 104.109C89.7641 104.057 89.6467 103.995 89.5354 103.919C89.424 103.845 89.32 103.76 89.225 103.665C89.1314 103.572 89.0467 103.468 88.971 103.356C88.8967 103.245 88.8344 103.128 88.7824 103.003C88.7319 102.88 88.6933 102.752 88.6665 102.62C88.6398 102.489 88.6279 102.355 88.6279 102.222C88.6279 102.088 88.6398 101.954 88.6665 101.824C88.6933 101.692 88.7319 101.564 88.7824 101.441C88.8344 101.316 88.8967 101.199 88.971 101.087C89.0467 100.976 89.1314 100.873 89.225 100.778C89.32 100.683 89.424 100.599 89.5354 100.524C89.6467 100.45 89.7641 100.386 89.8873 100.336C90.0121 100.284 90.1398 100.245 90.2705 100.218C90.4027 100.193 90.5349 100.18 90.67 100.18C90.8037 100.18 90.9359 100.193 91.068 100.218C91.2002 100.245 91.328 100.284 91.4512 100.336C91.5745 100.386 91.6933 100.45 91.8047 100.524C91.9161 100.599 92.0186 100.683 92.1136 100.778C92.2087 100.873 92.2933 100.976 92.3676 101.087C92.4418 101.199 92.5057 101.316 92.5562 101.441C92.6082 101.564 92.6468 101.692 92.672 101.824C92.6988 101.954 92.7121 102.088 92.7121 102.222Z" fill="#080717"/>
<path d="M86.6265 82.7102H87.4196C87.528 82.7102 87.6349 82.6998 87.7404 82.679C87.8473 82.6567 87.9498 82.6255 88.0493 82.5854C88.1488 82.5439 88.2439 82.4934 88.3344 82.4325C88.4236 82.3731 88.5067 82.3047 88.584 82.2275C88.6597 82.1518 88.728 82.0686 88.7889 81.978C88.8483 81.8889 88.8988 81.7938 88.9404 81.6943C88.982 81.5948 89.0132 81.4909 89.034 81.3854C89.0548 81.28 89.0651 81.173 89.0651 81.0646V75.5458C88.3924 75.4834 87.7122 75.4478 87.0231 75.4478C86.3339 75.4478 85.6537 75.4834 84.981 75.5458V81.0631C84.981 81.1716 84.9914 81.2785 85.0121 81.3839C85.0344 81.4909 85.0656 81.5933 85.1057 81.6929C85.1473 81.7938 85.1978 81.8889 85.2587 81.978C85.3181 82.0686 85.3864 82.1518 85.4621 82.2275C85.5394 82.3047 85.6225 82.3731 85.7117 82.4325C85.8023 82.4919 85.8973 82.5439 85.9968 82.5854C86.0963 82.6255 86.2003 82.6567 86.3057 82.679C86.4112 82.6998 86.5181 82.7102 86.6265 82.7102Z" fill="#080717"/>
<path d="M109.963 108.8C110.309 108.611 111.065 108.201 111.129 107.525C111.188 106.899 110.636 106.223 109.746 105.768C109.746 105.768 112.736 103.157 110.502 101.755C110.502 101.755 113.346 99.5603 110.89 97.7425C110.89 97.7425 112.731 95.3588 110.888 93.9048C109.045 92.4509 102.288 94.5494 101.441 96.0227C100.596 97.4945 103.828 98.1093 103.828 98.1093C103.828 98.1093 99.6115 99.9955 103.507 101.362C103.507 101.362 99.1927 103.079 103.24 105.251C101.667 105.948 101.313 106.517 101.319 106.927C101.343 108.546 106.987 110.414 109.963 108.8Z" fill="white"/>
<path d="M107.134 109.713C105.427 109.712 103.822 109.311 102.314 108.51C101.477 108.02 101.031 107.473 101.024 106.931C101.015 106.336 101.533 105.774 102.605 105.223C101.642 104.61 101.174 103.955 101.212 103.272C101.263 102.397 102.151 101.744 102.781 101.389C101.982 101.01 101.581 100.563 101.558 100.03C101.526 99.2575 102.366 98.5966 103.009 98.206C102.326 97.9936 101.401 97.5956 101.102 96.9466C101.025 96.7728 100.993 96.5902 101.007 96.4001C101.021 96.21 101.08 96.0347 101.184 95.8743C101.772 94.8495 104.472 93.7832 106.743 93.3451C107.918 93.1178 110.042 92.8594 111.072 93.6718C112.581 94.8629 111.95 96.6956 111.295 97.6847C111.564 97.8897 111.776 98.1421 111.934 98.4421C112.09 98.7422 112.174 99.06 112.188 99.3971C112.198 100.428 111.418 101.314 110.977 101.733C111.163 101.883 111.313 102.063 111.424 102.274C111.537 102.485 111.603 102.709 111.623 102.947C111.709 104.05 110.746 105.191 110.239 105.708C111.043 106.218 111.488 106.903 111.426 107.554C111.346 108.387 110.477 108.858 110.105 109.06C109.17 109.526 108.179 109.744 107.134 109.713ZM108.888 93.7104C108.203 93.7193 107.526 93.7921 106.856 93.9287C104.538 94.3773 102.129 95.4243 101.699 96.1713C101.581 96.3362 101.561 96.5114 101.643 96.6986C101.897 97.2496 103.152 97.6773 103.884 97.8169C103.948 97.8288 104.003 97.8585 104.048 97.906C104.092 97.9535 104.117 98.01 104.125 98.0753C104.134 98.1392 104.12 98.2001 104.088 98.2565C104.055 98.3144 104.009 98.356 103.95 98.3813C103.241 98.6991 102.129 99.4224 102.152 100.008C102.169 100.377 102.684 100.76 103.606 101.083C103.664 101.104 103.712 101.139 103.749 101.19C103.785 101.24 103.804 101.295 103.805 101.358C103.805 101.42 103.789 101.476 103.755 101.528C103.721 101.579 103.675 101.617 103.618 101.64C103.13 101.836 101.851 102.516 101.806 103.309C101.777 103.841 102.322 104.421 103.382 104.99C103.492 105.048 103.544 105.14 103.54 105.265C103.535 105.388 103.476 105.476 103.361 105.525C101.838 106.201 101.616 106.692 101.619 106.925C101.624 107.236 101.997 107.638 102.616 108.001C104.481 109.092 107.899 109.584 109.822 108.54C110.135 108.37 110.786 108.018 110.835 107.5C110.881 107.014 110.401 106.44 109.612 106.036C109.568 106.014 109.532 105.982 109.504 105.942C109.476 105.901 109.459 105.856 109.454 105.807C109.448 105.76 109.454 105.712 109.471 105.666C109.488 105.62 109.516 105.58 109.553 105.547C109.569 105.534 111.124 104.157 111.032 102.996C111.007 102.785 110.933 102.592 110.812 102.416C110.691 102.241 110.535 102.106 110.346 102.008C110.305 101.983 110.272 101.949 110.247 101.907C110.223 101.865 110.209 101.819 110.206 101.772C110.205 101.723 110.214 101.677 110.233 101.632C110.254 101.589 110.284 101.552 110.322 101.522C110.334 101.512 111.607 100.512 111.594 99.4045C111.588 98.8892 111.292 98.411 110.714 97.9847C110.648 97.9342 110.609 97.8689 110.597 97.7872C110.585 97.704 110.605 97.6298 110.655 97.5644C110.723 97.4738 112.293 95.3931 110.705 94.1411C110.343 93.8545 109.713 93.7089 108.888 93.7089V93.7104Z" fill="#090817"/>
<path d="M109.746 106.067H109.733L102.815 105.742C102.733 105.739 102.665 105.706 102.61 105.645C102.554 105.584 102.528 105.513 102.533 105.431C102.537 105.35 102.57 105.281 102.631 105.228C102.692 105.173 102.761 105.146 102.843 105.148L109.761 105.473C109.843 105.474 109.912 105.505 109.969 105.565C110.025 105.623 110.052 105.694 110.051 105.776C110.049 105.859 110.018 105.927 109.959 105.985C109.899 106.042 109.829 106.068 109.746 106.067Z" fill="#080717"/>
<path d="M110.847 101.742H110.844L103.504 101.659C103.422 101.659 103.353 101.629 103.295 101.571C103.237 101.513 103.208 101.442 103.208 101.36C103.208 101.278 103.238 101.209 103.296 101.151C103.356 101.093 103.425 101.064 103.507 101.064H103.51L110.85 101.146C110.931 101.148 111.001 101.177 111.059 101.235C111.117 101.293 111.145 101.363 111.145 101.446C111.145 101.528 111.115 101.598 111.058 101.656C111 101.713 110.928 101.742 110.847 101.742Z" fill="#080717"/>
<path d="M103.828 98.405C103.745 98.4065 103.675 98.3797 103.616 98.3233C103.556 98.2669 103.526 98.1971 103.523 98.1154C103.522 98.0337 103.549 97.9624 103.605 97.903C103.662 97.8436 103.73 97.8139 103.812 97.8109L110.875 97.4441C110.957 97.4411 111.028 97.4664 111.089 97.5213C111.15 97.5763 111.182 97.6446 111.185 97.7277C111.19 97.8094 111.165 97.8807 111.11 97.9416C111.055 98.0025 110.986 98.0352 110.905 98.0396L103.843 98.405H103.828Z" fill="#080717"/>
<path d="M81.2637 88.8899C81.2637 89.0132 81.2519 89.135 81.2266 89.2568C81.2029 89.3771 81.1672 89.4944 81.1197 89.6087C81.0736 89.7216 81.0157 89.83 80.9474 89.9325C80.8791 90.035 80.8004 90.13 80.7142 90.2177C80.6266 90.3038 80.5316 90.3825 80.4291 90.4508C80.3266 90.5191 80.2182 90.5771 80.1053 90.6231C79.991 90.6706 79.8736 90.7063 79.7533 90.73C79.6316 90.7538 79.5098 90.7672 79.3865 90.7672C79.2632 90.7672 79.1414 90.7538 79.0212 90.73C78.8994 90.7063 78.782 90.6706 78.6692 90.6231C78.5548 90.5771 78.4464 90.5191 78.3439 90.4508C78.2414 90.3825 78.1479 90.3038 78.0603 90.2177C77.9726 90.13 77.8954 90.035 77.8271 89.9325C77.7588 89.83 77.7008 89.7216 77.6533 89.6087C77.6058 89.4944 77.5701 89.3771 77.5464 89.2568C77.5226 89.135 77.5107 89.0132 77.5107 88.8899C77.5107 88.7666 77.5226 88.6449 77.5464 88.5246C77.5701 88.4028 77.6058 88.2855 77.6533 88.1726C77.7008 88.0582 77.7588 87.9498 77.8271 87.8473C77.8954 87.7449 77.9726 87.6513 78.0603 87.5637C78.1479 87.476 78.2414 87.3988 78.3439 87.3305C78.4464 87.2622 78.5548 87.2043 78.6692 87.1567C78.782 87.1092 78.8994 87.0736 79.0212 87.0498C79.1414 87.026 79.2632 87.0142 79.3865 87.0142C79.5098 87.0142 79.6316 87.026 79.7533 87.0498C79.8736 87.0736 79.991 87.1092 80.1053 87.1567C80.2182 87.2043 80.3266 87.2622 80.4291 87.3305C80.5316 87.3988 80.6266 87.476 80.7142 87.5637C80.8004 87.6513 80.8791 87.7449 80.9474 87.8473C81.0157 87.9498 81.0736 88.0582 81.1197 88.1726C81.1672 88.2855 81.2029 88.4028 81.2266 88.5246C81.2519 88.6449 81.2637 88.7666 81.2637 88.8899Z" fill="#080717"/>
<path d="M96.0294 88.8899C96.0294 89.0132 96.0175 89.135 95.9937 89.2568C95.9685 89.3771 95.9328 89.4944 95.8868 89.6087C95.8393 89.7216 95.7813 89.83 95.713 89.9325C95.6447 90.035 95.5675 90.13 95.4799 90.2177C95.3922 90.3038 95.2972 90.3825 95.1947 90.4508C95.0922 90.5191 94.9853 90.5771 94.8709 90.6231C94.7566 90.6706 94.6393 90.7063 94.519 90.73C94.3987 90.7538 94.2754 90.7672 94.1536 90.7672C94.0303 90.7672 93.9071 90.7538 93.7868 90.73C93.6665 90.7063 93.5492 90.6706 93.4348 90.6231C93.3204 90.5771 93.2135 90.5191 93.111 90.4508C93.0086 90.3825 92.9135 90.3038 92.8259 90.2177C92.7397 90.13 92.661 90.035 92.5927 89.9325C92.5244 89.83 92.4665 89.7216 92.4189 89.6087C92.3729 89.4944 92.3373 89.3771 92.312 89.2568C92.2882 89.135 92.2764 89.0132 92.2764 88.8899C92.2764 88.7666 92.2882 88.6449 92.312 88.5246C92.3373 88.4028 92.3729 88.2855 92.4189 88.1726C92.4665 88.0582 92.5244 87.9498 92.5927 87.8473C92.661 87.7449 92.7397 87.6513 92.8259 87.5637C92.9135 87.476 93.0086 87.3988 93.111 87.3305C93.2135 87.2622 93.3204 87.2043 93.4348 87.1567C93.5492 87.1092 93.6665 87.0736 93.7868 87.0498C93.9071 87.026 94.0303 87.0142 94.1536 87.0142C94.2754 87.0142 94.3987 87.026 94.519 87.0498C94.6393 87.0736 94.7566 87.1092 94.8709 87.1567C94.9853 87.2043 95.0922 87.2622 95.1947 87.3305C95.2972 87.3988 95.3922 87.476 95.4799 87.5637C95.5675 87.6513 95.6447 87.7449 95.713 87.8473C95.7813 87.9498 95.8393 88.0582 95.8868 88.1726C95.9328 88.2855 95.9685 88.4028 95.9937 88.5246C96.0175 88.6449 96.0294 88.7666 96.0294 88.8899Z" fill="#080717"/>
<path d="M29.929 14.9645C29.929 15.4546 29.9052 15.9432 29.8577 16.4318C29.8087 16.919 29.7374 17.4031 29.6423 17.8843C29.5458 18.364 29.427 18.8393 29.2844 19.3086C29.1433 19.7779 28.977 20.2383 28.7898 20.6913C28.6027 21.1442 28.3933 21.5868 28.1616 22.019C27.9314 22.4512 27.6789 22.8715 27.4072 23.2784C27.1354 23.6853 26.8428 24.0789 26.5324 24.4576C26.222 24.8363 25.8923 25.1987 25.5462 25.5462C25.2002 25.8923 24.8363 26.2205 24.4576 26.5324C24.0789 26.8428 23.6853 27.1354 23.2784 27.4072C22.8715 27.6789 22.4512 27.9314 22.019 28.1616C21.5868 28.3933 21.1442 28.6027 20.6913 28.7898C20.2383 28.977 19.7779 29.1418 19.3086 29.2844C18.8393 29.427 18.3655 29.5458 17.8843 29.6408C17.4031 29.7374 16.919 29.8087 16.4318 29.8562C15.9432 29.9052 15.4546 29.929 14.9645 29.929C14.4744 29.929 13.9858 29.9052 13.4986 29.8562C13.01 29.8087 12.5258 29.7374 12.0447 29.6408C11.5649 29.5458 11.0897 29.427 10.6204 29.2844C10.1511 29.1418 9.69067 28.977 9.2377 28.7898C8.78473 28.6027 8.34215 28.3933 7.90997 28.1616C7.47778 27.9314 7.05897 27.6789 6.65055 27.4072C6.24362 27.1354 5.85005 26.8428 5.47133 26.5324C5.09262 26.2205 4.73024 25.8923 4.38271 25.5462C4.03667 25.1987 3.70845 24.8363 3.39656 24.4576C3.08616 24.0789 2.79507 23.6853 2.5218 23.2784C2.25002 22.8715 1.99903 22.4512 1.76734 22.019C1.53566 21.5868 1.32625 21.1442 1.13912 20.6913C0.951988 20.2383 0.787135 19.7779 0.64456 19.3086C0.501984 18.8393 0.383171 18.364 0.288121 17.8843C0.191585 17.4031 0.120298 16.919 0.0727729 16.4318C0.0237627 15.9432 0 15.4546 0 14.9645C0 14.4744 0.0237627 13.9858 0.0727729 13.4971C0.120298 13.01 0.191585 12.5258 0.288121 12.0447C0.383171 11.5649 0.501984 11.0897 0.64456 10.6204C0.787135 10.1511 0.951988 9.69067 1.13912 9.2377C1.32625 8.78473 1.53566 8.34215 1.76734 7.90997C1.99903 7.47778 2.25002 7.05748 2.5218 6.65055C2.79507 6.24362 3.08616 5.85005 3.39656 5.47133C3.70845 5.09262 4.03667 4.73024 4.38271 4.38271C4.73024 4.03667 5.09262 3.70845 5.47133 3.39656C5.85005 3.08616 6.24362 2.79359 6.65055 2.5218C7.05897 2.25002 7.47778 1.99754 7.90997 1.76734C8.34215 1.53566 8.78473 1.32625 9.2377 1.13912C9.69067 0.951988 10.1511 0.787135 10.6204 0.64456C11.0897 0.501984 11.5649 0.383171 12.0447 0.288121C12.5258 0.191586 13.01 0.120298 13.4986 0.0727729C13.9858 0.0237627 14.4744 0 14.9645 0C15.4546 0 15.9432 0.0237627 16.4318 0.0727729C16.919 0.120298 17.4031 0.191586 17.8843 0.288121C18.3655 0.383171 18.8393 0.501984 19.3086 0.64456C19.7779 0.787135 20.2383 0.951988 20.6913 1.13912C21.1442 1.32625 21.5868 1.53566 22.019 1.76734C22.4512 1.99754 22.8715 2.25002 23.2784 2.5218C23.6853 2.79359 24.0789 3.08616 24.4576 3.39656C24.8363 3.70845 25.2002 4.03667 25.5462 4.38271C25.8923 4.73024 26.222 5.09262 26.5324 5.47133C26.8428 5.85005 27.1354 6.24362 27.4072 6.65055C27.6789 7.05748 27.9314 7.47778 28.1616 7.90997C28.3933 8.34215 28.6027 8.78473 28.7898 9.2377C28.977 9.69067 29.1433 10.1511 29.2844 10.6204C29.427 11.0897 29.5458 11.5649 29.6423 12.0447C29.7374 12.5258 29.8087 13.01 29.8577 13.4971C29.9052 13.9858 29.929 14.4744 29.929 14.9645Z" fill="#080717"/>
<path d="M13.8088 23.6956C11.596 23.66 9.70534 22.9827 9.21227 22.0486C8.78157 21.2302 9.20336 19.8728 9.82416 19.5327C9.90881 19.4837 10.0009 19.4599 10.0989 19.4629C10.4271 19.5045 10.7464 19.5832 11.0554 19.7005C11.4682 19.8312 12.0356 20.0109 12.8004 20.201C13.7079 20.449 14.6316 20.5961 15.5702 20.6421C16.3752 20.654 16.8816 20.4936 17.1163 20.149C17.2648 19.901 17.348 19.6322 17.3658 19.3441C17.4 17.1624 15.4856 16.6025 13.4583 16.0114C12.7158 15.8079 11.9866 15.5658 11.2722 15.2822C10.0974 14.7906 9.26574 13.0114 9.29247 11.0509C9.32217 8.86924 10.3514 7.17764 12.043 6.52417C12.6786 6.27912 13.338 6.16179 14.0197 6.17367C16.295 6.20931 18.2688 7.6618 19.1421 8.41478C19.2579 8.51726 19.3351 8.64201 19.3752 8.79052C19.4138 8.93904 19.4094 9.08607 19.3589 9.23162C18.9638 10.4331 18.3386 10.4301 18.1084 10.4257H18.1054C17.6539 10.3886 17.2381 10.249 16.8564 10.0039C16.2623 9.67865 15.6267 9.50934 14.9494 9.49895C13.9633 9.48409 13.1895 9.84202 12.8776 10.4584C12.5494 11.1059 12.8658 11.9034 12.9326 12.0579C13.5014 13.3648 14.8351 13.6559 16.2475 13.9648C17.4609 14.2307 18.7173 14.5039 19.595 15.4455C20.9465 16.8936 20.9985 19.3693 20.2723 20.8322C19.1955 23.0035 16.1183 23.7312 13.8088 23.6956Z" fill="white"/>
<path d="M14.5728 4.39014L15.6882 4.40796C15.7535 4.40944 15.8159 4.42281 15.8768 4.44806C15.9362 4.47479 15.9897 4.51192 16.0342 4.55796C16.0803 4.60549 16.1159 4.65895 16.1397 4.71984C16.1634 4.78073 16.1753 4.8446 16.1738 4.90994L15.8605 25.0517C15.859 25.117 15.8456 25.1809 15.8189 25.2403C15.7936 25.3012 15.7565 25.3532 15.7105 25.3992C15.6629 25.4453 15.608 25.4794 15.5471 25.5047C15.4862 25.5284 15.4238 25.5403 15.3585 25.5388L14.2431 25.521C14.1763 25.5195 14.1139 25.5062 14.0545 25.4809C13.9936 25.4542 13.9401 25.4185 13.8956 25.371C13.8495 25.3235 13.8139 25.27 13.7901 25.2091C13.7664 25.1482 13.7545 25.0844 13.756 25.019L14.0694 4.87727C14.0708 4.81192 14.0842 4.74955 14.1109 4.68865C14.1362 4.62925 14.1733 4.57578 14.2208 4.52974C14.2669 4.4837 14.3218 4.44954 14.3827 4.42578C14.4436 4.40053 14.506 4.39014 14.5728 4.39014Z" fill="white"/>
<path d="M14.9703 27.6248C14.902 27.6248 14.8351 27.6248 14.7668 27.6233C14.4921 27.6174 14.2173 27.604 13.944 27.5818C13.6708 27.5595 13.3975 27.5283 13.1257 27.4882C12.8539 27.4466 12.5836 27.3976 12.3148 27.3397C12.046 27.2817 11.7802 27.2149 11.5158 27.1407C11.2515 27.0649 10.9901 26.9803 10.7316 26.8882C10.4717 26.7961 10.2163 26.6951 9.9653 26.5852C9.71283 26.4768 9.46481 26.3595 9.21975 26.2347C8.9747 26.1085 8.73559 25.9748 8.49945 25.8337C8.26331 25.6926 8.03311 25.5441 7.80588 25.3882C7.58014 25.2322 7.35885 25.0689 7.1435 24.8981C6.92815 24.7273 6.71874 24.5505 6.51528 24.3664C6.31181 24.1822 6.1128 23.9906 5.9227 23.7946C5.73111 23.5971 5.54547 23.3936 5.36725 23.1842C5.18903 22.9748 5.01823 22.7609 4.85487 22.5396C4.69001 22.3198 4.53407 22.0941 4.38407 21.8639C4.23555 21.6322 4.09298 21.3975 3.95931 21.1584C3.82565 20.9178 3.69941 20.6743 3.5806 20.4262C3.46327 20.1782 3.35337 19.9257 3.25089 19.6703C3.1499 19.4149 3.05634 19.1564 2.97168 18.895C2.88703 18.6337 2.81129 18.3708 2.74297 18.1035C2.67614 17.8376 2.61673 17.5688 2.56623 17.2985C2.51722 17.0282 2.47564 16.7579 2.44297 16.4846C2.41178 16.2114 2.38801 15.9381 2.37316 15.6633C2.35831 15.3886 2.35386 15.1138 2.35683 14.8391C2.36128 14.5643 2.37316 14.291 2.39395 14.0163C2.41623 13.743 2.44594 13.4698 2.48603 13.198C2.52465 12.9262 2.57217 12.6559 2.6301 12.3871C2.68653 12.1183 2.75188 11.8509 2.82614 11.5866C2.90039 11.3222 2.98356 11.0608 3.07564 10.8009C3.16624 10.5425 3.26723 10.2856 3.37416 10.0331C3.48258 9.78062 3.59842 9.53259 3.72317 9.28754C3.84793 9.04249 3.98011 8.80189 4.11971 8.56427C4.2608 8.32813 4.40783 8.09644 4.56377 7.8707C4.71823 7.64347 4.8816 7.42218 5.05091 7.20535C5.22022 6.99 5.39695 6.77911 5.57962 6.57415C5.76378 6.37069 5.95388 6.17168 6.14993 5.98009C6.34597 5.78702 6.54943 5.60137 6.75736 5.42315C6.96528 5.24345 7.18063 5.07117 7.40043 4.90632C7.62024 4.74147 7.84449 4.58404 8.07469 4.43404C8.30489 4.28404 8.53955 4.14146 8.77866 4.00631C9.01777 3.87116 9.26134 3.74344 9.50936 3.62462C9.75738 3.50581 10.0084 3.39443 10.2623 3.29195C10.5178 3.18947 10.7762 3.09591 11.0361 3.00977C11.2975 2.92363 11.5619 2.8464 11.8277 2.77808C12.0935 2.70977 12.3609 2.64887 12.6312 2.59838C12.9015 2.54788 13.1733 2.50481 13.445 2.47214C13.7183 2.43798 13.9916 2.41422 14.2663 2.39788C14.5411 2.38303 14.8158 2.3756 15.0906 2.37858C15.3653 2.38155 15.6386 2.39194 15.9134 2.41273C16.1866 2.43353 16.4599 2.46174 16.7332 2.50036C17.005 2.53897 17.2753 2.58501 17.5441 2.64145C17.8129 2.69788 18.0802 2.76175 18.3446 2.83452C18.6104 2.90878 18.8718 2.99046 19.1317 3.08106C19.3916 3.17165 19.6471 3.26967 19.901 3.3766C20.1535 3.48353 20.403 3.59938 20.6481 3.72265C20.8931 3.84591 21.1352 3.97661 21.3713 4.11621C21.609 4.25582 21.8406 4.40285 22.0679 4.55731C22.2951 4.71176 22.5179 4.87216 22.7347 5.04147C22.9515 5.21078 23.1624 5.38603 23.3674 5.5687C23.5738 5.75137 23.7728 5.93999 23.9659 6.13603C24.159 6.33207 24.3446 6.53257 24.5243 6.74049C24.704 6.94841 24.8778 7.16228 25.0427 7.3806C25.209 7.6004 25.3679 7.82466 25.5194 8.05337C25.6694 8.28357 25.8135 8.51823 25.9501 8.75586C26.0852 8.99497 26.213 9.23853 26.3333 9.48507C26.4536 9.73309 26.5649 9.98408 26.6689 10.238C26.7729 10.492 26.8679 10.7504 26.9555 11.0103C27.0417 11.2717 27.1204 11.5346 27.1902 11.8004C27.26 12.0663 27.3209 12.3336 27.3729 12.6039C27.4249 12.8742 27.4679 13.1445 27.5021 13.4178C27.5377 13.6896 27.563 13.9628 27.5793 14.2376C27.5956 14.5123 27.6031 14.7871 27.6016 15.0618C27.6016 15.3366 27.5912 15.6099 27.5719 15.8846C27.5526 16.1594 27.5244 16.4327 27.4872 16.7044C27.4501 16.9762 27.4041 17.248 27.3491 17.5168C27.2942 17.7856 27.2318 18.053 27.159 18.3188C27.0862 18.5832 27.006 18.846 26.9169 19.1059C26.8278 19.3658 26.7298 19.6228 26.6229 19.8753C26.5174 20.1292 26.4031 20.3787 26.2813 20.6253C26.158 20.8703 26.0273 21.1124 25.8892 21.35C25.7511 21.5876 25.6055 21.8208 25.4526 22.048C25.2981 22.2768 25.1377 22.4995 24.9699 22.7164C24.8021 22.9347 24.6268 23.1456 24.4456 23.352C24.2644 23.5585 24.0758 23.7575 23.8813 23.952C23.6852 24.1451 23.4847 24.3322 23.2783 24.5134C23.0704 24.6946 22.858 24.8684 22.6397 25.0347C22.4213 25.201 22.1971 25.36 21.9684 25.5129C21.7397 25.6644 21.5065 25.81 21.2689 25.9466C21.0298 26.0832 20.7877 26.2124 20.5411 26.3327C20.2946 26.4545 20.0436 26.5674 19.7896 26.6713C19.5357 26.7768 19.2787 26.8733 19.0174 26.961C18.7575 27.0486 18.4946 27.1288 18.2287 27.1986C17.9644 27.2699 17.6956 27.3322 17.4268 27.3857C17.1565 27.4377 16.8862 27.4822 16.6129 27.5179C16.3411 27.5535 16.0678 27.5803 15.7931 27.5981C15.5198 27.6159 15.245 27.6248 14.9703 27.6248ZM14.9599 2.89838C14.5663 2.89838 14.1742 2.91769 13.7822 2.9563C13.3901 2.99492 13.001 3.05284 12.6148 3.12858C12.2287 3.20581 11.847 3.30086 11.4698 3.41522C11.0925 3.52957 10.7227 3.66175 10.3574 3.81176C9.99352 3.96176 9.63857 4.12958 9.29104 4.31522C8.94351 4.50087 8.6049 4.70285 8.27816 4.92117C7.94994 5.138 7.6336 5.37266 7.32914 5.62217C7.0232 5.87167 6.73211 6.13455 6.4529 6.41227C6.17369 6.69 5.90784 6.98109 5.65834 7.28406C5.40735 7.58852 5.17121 7.90337 4.9514 8.23011C4.7316 8.55684 4.52962 8.89397 4.34249 9.2415C4.15536 9.58754 3.98605 9.9425 3.83456 10.3064C3.68159 10.6687 3.54792 11.0385 3.43208 11.4158C3.31624 11.7915 3.2197 12.1732 3.14099 12.5594C3.06228 12.9455 3.00287 13.3346 2.96277 13.7252C2.92119 14.1173 2.90039 14.5109 2.89891 14.9044C2.89594 15.298 2.91376 15.6916 2.95089 16.0836C2.98653 16.4757 3.04297 16.8648 3.11723 17.251C3.19149 17.6386 3.28505 18.0203 3.39792 18.3975C3.50931 18.7747 3.64 19.146 3.78852 19.5114C3.93704 19.8767 4.10189 20.2332 4.28605 20.5807C4.46872 20.9297 4.66922 21.2683 4.88605 21.598C5.1014 21.9263 5.33457 22.2441 5.58111 22.55C5.82913 22.8575 6.09201 23.15 6.36824 23.4307C6.64448 23.7114 6.93409 23.9773 7.23558 24.2297C7.53855 24.4822 7.85192 24.7198 8.17866 24.9411C8.50391 25.1624 8.83955 25.3674 9.18559 25.556C9.53015 25.7446 9.88511 25.9154 10.2475 26.0699C10.6099 26.2243 10.9797 26.3595 11.3554 26.4783C11.7312 26.5956 12.1114 26.6951 12.4975 26.7753C12.8822 26.8555 13.2713 26.9179 13.6619 26.9595C14.054 27.0025 14.446 27.0263 14.8411 27.0293C15.2347 27.0337 15.6267 27.0189 16.0203 26.9847C16.4124 26.9491 16.8015 26.8956 17.1891 26.8228C17.5768 26.7515 17.9584 26.6595 18.3372 26.5496C18.7144 26.4397 19.0872 26.3105 19.4525 26.1649C19.8179 26.0179 20.1758 25.8545 20.5248 25.6733C20.8753 25.4906 21.2139 25.2931 21.5451 25.0778C21.8748 24.8639 22.1941 24.6337 22.5015 24.3872C22.809 24.1406 23.103 23.8807 23.3852 23.606C23.6674 23.3312 23.9362 23.0431 24.1902 22.7416C24.4427 22.4401 24.6818 22.1282 24.9045 21.803C25.1288 21.4792 25.3352 21.1451 25.5253 20.8005C25.7169 20.4545 25.8892 20.1025 26.0451 19.7401C26.2011 19.3792 26.3392 19.0094 26.4595 18.6351C26.5783 18.2594 26.6793 17.8792 26.7625 17.4945C26.8456 17.1099 26.908 16.7208 26.9526 16.3302C26.9971 15.9381 27.0239 15.546 27.0298 15.1524C27.0357 14.7574 27.0224 14.3623 26.9897 13.9688C26.957 13.5752 26.905 13.1831 26.8338 12.7955C26.7625 12.4064 26.6734 12.0217 26.5649 11.6415C26.455 11.2628 26.3288 10.8885 26.1833 10.5217C26.0377 10.1534 25.8743 9.79398 25.6932 9.44348C25.5135 9.0915 25.3144 8.74991 25.1006 8.41724C24.8867 8.08605 24.6565 7.76525 24.41 7.45634C24.1649 7.14594 23.9035 6.85039 23.6288 6.56673C23.354 6.28306 23.0659 6.01276 22.7644 5.75732C22.4629 5.50187 22.1496 5.26276 21.8243 5.03701C21.4991 4.81275 21.1634 4.60483 20.8189 4.41325C20.4728 4.22166 20.1179 4.04641 19.7555 3.89047C19.3931 3.73304 19.0233 3.59492 18.6476 3.47314C18.2718 3.35284 17.8901 3.25185 17.504 3.16868C17.1178 3.08551 16.7272 3.02165 16.3352 2.97561C15.9431 2.93106 15.548 2.90581 15.153 2.89987C15.0891 2.89838 15.0238 2.89838 14.9599 2.89838Z" fill="white"/>
<path d="M78.2948 33.4304C77.8641 23.1575 69.6482 14.9639 59.5713 14.9639C50.7658 14.9639 43.3831 21.2208 41.3722 29.6536L41.3677 29.658L41.3633 29.6967C41.0737 30.9204 40.9014 32.1605 40.8494 33.417C40.842 33.417 40.8346 33.417 40.8271 33.417C40.5509 33.4155 40.2776 33.4437 40.0073 33.5002C39.737 33.5581 39.4756 33.6427 39.2232 33.7541C38.9707 33.867 38.7331 34.0051 38.5103 34.1685C38.286 34.3318 38.0825 34.516 37.8999 34.7224C37.7157 34.9289 37.5553 35.1517 37.4187 35.3923C37.282 35.6328 37.1721 35.8838 37.089 36.1482C37.0073 36.4126 36.9523 36.6814 36.9271 36.9561C36.9004 37.2324 36.9048 37.5071 36.9375 37.7804C36.9702 38.0551 37.0311 38.324 37.1202 38.5853C37.2108 38.8467 37.3266 39.0948 37.4692 39.3324C37.6118 39.5685 37.7781 39.7883 37.9667 39.9888C38.1553 40.1908 38.3647 40.3705 38.592 40.5279C38.8192 40.6854 39.0598 40.8161 39.3152 40.923C39.5707 41.0284 39.8336 41.1072 40.1053 41.1562C40.3771 41.2067 40.6519 41.2274 40.9281 41.2185C41.2044 41.2111 41.4761 41.174 41.745 41.1072C42.5752 45.0532 44.338 49.2236 47.9009 52.1909C52.3505 55.8979 57.2515 56.1489 58.7901 56.2068C60.5976 56.2944 62.3798 56.1147 64.1338 55.6662C65.8877 55.2191 67.5363 54.5226 69.0808 53.5766C75.6274 49.4849 77.0294 42.4096 77.2581 41.1458C77.5195 41.1977 77.7839 41.223 78.0497 41.22C78.3156 41.2185 78.5784 41.1888 78.8383 41.1324C79.0997 41.076 79.3507 40.9943 79.5943 40.8859C79.8378 40.7789 80.068 40.6468 80.2834 40.4923C80.5002 40.3378 80.6992 40.1626 80.8789 39.9665C81.0601 39.7705 81.219 39.5596 81.3557 39.3309C81.4938 39.1037 81.6067 38.8631 81.6943 38.6121C81.7819 38.3611 81.8443 38.1042 81.8799 37.8398C81.9156 37.5754 81.923 37.3111 81.9052 37.0452C81.8859 36.7809 81.8413 36.5195 81.7686 36.2626C81.6958 36.0071 81.5992 35.7606 81.476 35.5244C81.3542 35.2883 81.2086 35.067 81.0408 34.8606C80.873 34.6541 80.6859 34.467 80.4794 34.2977C80.273 34.1299 80.0517 33.9843 79.8156 33.8611C79.5794 33.7393 79.3329 33.6412 79.0774 33.5685C78.8205 33.4957 78.5606 33.4497 78.2948 33.4304Z" fill="white"/>
<path d="M59.5848 56.5173C59.3175 56.5173 59.0487 56.5129 58.7784 56.5025C54.4937 56.3406 50.7689 54.9668 47.7095 52.4183C44.6441 49.8638 42.5604 46.1762 41.5164 41.4578C41.2891 41.4964 41.0589 41.5172 40.8272 41.5172C40.5569 41.5172 40.2896 41.492 40.0238 41.44C39.7594 41.388 39.501 41.3123 39.25 41.2098C39.0005 41.1088 38.7614 40.984 38.5342 40.837C38.3084 40.69 38.0975 40.5222 37.903 40.3335C37.7099 40.1464 37.5346 39.9415 37.3802 39.7187C37.2257 39.4974 37.0936 39.2627 36.9851 39.0162C36.8752 38.7682 36.7906 38.5127 36.7312 38.2499C36.6703 37.9855 36.6361 37.7197 36.6287 37.4494C36.6198 37.1791 36.6376 36.9102 36.6807 36.6429C36.7237 36.3771 36.7921 36.1172 36.8856 35.8632C36.9792 35.6092 37.0965 35.3672 37.2376 35.1355C37.3772 34.9053 37.5391 34.6899 37.7203 34.4894C37.903 34.2904 38.102 34.1092 38.3188 33.9488C38.5356 33.787 38.7673 33.6473 39.0109 33.5315C39.2545 33.4142 39.5069 33.3221 39.7683 33.2538C40.0297 33.1855 40.2956 33.1439 40.5659 33.1261C40.6327 31.9454 40.802 30.7795 41.0738 29.6285V29.6122C41.0768 29.5914 41.0827 29.5721 41.0901 29.5528C43.1946 20.7859 50.7897 14.667 59.57 14.667C69.7121 14.667 78.0142 22.77 78.5785 33.1617C78.8399 33.1973 79.0954 33.2567 79.3449 33.3399C79.5959 33.4231 79.835 33.53 80.0652 33.6592C80.2954 33.7884 80.5122 33.937 80.7142 34.1063C80.9162 34.2756 81.1004 34.4627 81.2667 34.6677C81.433 34.8711 81.5801 35.0894 81.7048 35.3211C81.8311 35.5543 81.9335 35.7949 82.0137 36.0459C82.0939 36.2984 82.1489 36.5538 82.1815 36.8167C82.2127 37.0781 82.2202 37.3409 82.2023 37.6038C82.1845 37.8667 82.1415 38.1251 82.0746 38.3806C82.0093 38.636 81.9187 38.8825 81.8058 39.1216C81.6929 39.3593 81.5578 39.585 81.4018 39.7974C81.2474 40.0098 81.0721 40.2073 80.8805 40.387C80.6875 40.5667 80.4796 40.7271 80.2568 40.8682C80.034 41.0093 79.7994 41.1281 79.5543 41.2246C79.3092 41.3212 79.0568 41.3939 78.7984 41.4444C78.5385 41.4934 78.2771 41.5172 78.0142 41.5172C77.8404 41.5172 77.6681 41.5068 77.4959 41.4845C77.0414 43.7509 75.2696 50.0599 69.2384 53.8292C67.7903 54.7262 66.2458 55.4049 64.6032 55.8624C62.9621 56.3198 61.2883 56.5381 59.5848 56.5173ZM41.7436 40.8103C41.8149 40.8103 41.8773 40.8326 41.9307 40.8756C41.9857 40.9202 42.0198 40.9766 42.0347 41.0464C43.0283 45.7707 45.0674 49.4435 48.0897 51.9609C51.0452 54.4247 54.6496 55.7525 58.8007 55.9084C60.5799 56.0035 62.3324 55.8312 64.0581 55.3901C65.7854 54.9505 67.4072 54.2614 68.922 53.3242C75.0231 49.5103 76.6211 42.9979 76.9642 41.0925C76.9805 41.0108 77.0221 40.9469 77.0904 40.9009C77.1587 40.8548 77.233 40.8385 77.3147 40.8548C77.5553 40.9024 77.7988 40.9261 78.0454 40.9231C78.2919 40.9217 78.534 40.8949 78.7746 40.8429C79.0152 40.791 79.2484 40.7152 79.4741 40.6157C79.6984 40.5162 79.9107 40.3959 80.1112 40.2519C80.3117 40.1093 80.4944 39.9474 80.6622 39.7662C80.8286 39.5865 80.9756 39.3905 81.1033 39.1796C81.2296 38.9687 81.3335 38.7474 81.4152 38.5157C81.4969 38.2825 81.5533 38.0449 81.5875 37.8013C81.6202 37.5578 81.6276 37.3127 81.6098 37.0677C81.5919 36.8226 81.5504 36.5805 81.4835 36.3444C81.4167 36.1068 81.3276 35.8795 81.2132 35.6612C81.1004 35.4429 80.9667 35.238 80.8107 35.0479C80.6548 34.8563 80.4825 34.684 80.2924 34.528C80.1008 34.3736 79.8959 34.2384 79.6776 34.1256C79.4593 34.0112 79.232 33.9221 78.9959 33.8553C78.7583 33.7884 78.5177 33.7454 78.2726 33.7275C78.1969 33.7231 78.133 33.6934 78.0795 33.6384C78.0276 33.585 77.9993 33.5196 77.9964 33.4439C77.5701 23.2483 69.476 15.2625 59.57 15.2625C51.0556 15.2625 43.6906 21.2091 41.6604 29.7236C41.6589 29.7295 41.6575 29.7354 41.656 29.7414C41.3693 30.9547 41.1985 32.1845 41.1451 33.4305C41.1391 33.5152 41.1035 33.585 41.0396 33.6414C40.9758 33.6964 40.9 33.7201 40.8154 33.7142C40.5614 33.7142 40.3089 33.7394 40.0594 33.7929C39.8084 33.8464 39.5678 33.9251 39.3347 34.029C39.1015 34.1345 38.8832 34.2622 38.6767 34.4122C38.4718 34.5637 38.2832 34.7345 38.1139 34.9246C37.9446 35.1162 37.7975 35.3226 37.6713 35.5454C37.5465 35.7667 37.4455 35.9998 37.3683 36.2434C37.2926 36.487 37.2436 36.7365 37.2198 36.9904C37.196 37.2444 37.2005 37.4984 37.2302 37.7508C37.2614 38.0048 37.3178 38.2513 37.401 38.4934C37.4842 38.734 37.5926 38.9642 37.7233 39.1825C37.8554 39.4009 38.0099 39.6028 38.1837 39.79C38.3589 39.9756 38.552 40.1405 38.7614 40.286C38.9723 40.4301 39.1951 40.5519 39.4297 40.6499C39.6659 40.7479 39.9094 40.8192 40.1604 40.8652C40.4114 40.9113 40.6654 40.9306 40.9193 40.9217C41.1748 40.9142 41.4258 40.8801 41.6738 40.8192C41.6976 40.8132 41.7198 40.8103 41.7436 40.8103Z" fill="#090817"/>
<path d="M70.9631 33.4978C70.8888 33.4978 70.8235 33.4726 70.767 33.4236C70.2992 32.9899 69.7824 32.629 69.2165 32.3379C68.6492 32.0468 68.0551 31.8389 67.4299 31.7112C66.8061 31.5849 66.1764 31.5434 65.5422 31.5894C64.9066 31.6354 64.2902 31.7661 63.6902 31.98C63.616 32.0112 63.5402 32.0097 63.466 31.9785C63.3917 31.9473 63.3383 31.8953 63.3071 31.8196C63.2759 31.7453 63.2744 31.6711 63.3041 31.5953C63.3338 31.5196 63.3858 31.4661 63.4586 31.4334C64.1105 31.2032 64.7818 31.0651 65.4709 31.0161C66.1601 30.9671 66.8432 31.0102 67.5205 31.1468C68.1977 31.282 68.8452 31.5062 69.4631 31.8166C70.0809 32.127 70.6452 32.5132 71.1576 32.9765C71.2051 33.0181 71.2349 33.0686 71.2497 33.128C71.266 33.1874 71.2616 33.2468 71.2393 33.3048C71.2185 33.3627 71.1814 33.4087 71.1309 33.4444C71.0804 33.48 71.024 33.4978 70.9616 33.4978H70.9631Z" fill="#080717"/>
<path d="M48.0999 33.4753C47.9692 33.4753 47.8786 33.4145 47.8266 33.2942C47.7761 33.1739 47.7955 33.0654 47.886 32.9719C48.0999 32.7491 48.3286 32.5427 48.5722 32.354C48.8172 32.1654 49.0742 31.9961 49.343 31.8446C49.6118 31.6946 49.891 31.5639 50.1791 31.454C50.4673 31.3441 50.7628 31.2565 51.0643 31.1912C51.3643 31.1243 51.6702 31.0813 51.9777 31.059C52.2851 31.0382 52.5925 31.0397 52.9 31.0634C53.2074 31.0872 53.5118 31.1347 53.8133 31.203C54.1133 31.2729 54.4074 31.3634 54.6955 31.4763C54.7713 31.506 54.8262 31.558 54.8589 31.6337C54.8916 31.7095 54.893 31.7852 54.8633 31.861C54.8336 31.9382 54.7817 31.9917 54.7059 32.0258C54.6302 32.0585 54.5544 32.06 54.4787 32.0303C54.2188 31.9278 53.9529 31.8461 53.6797 31.7837C53.4079 31.7199 53.1331 31.6783 52.8539 31.656C52.5762 31.6337 52.297 31.6337 52.0178 31.6531C51.74 31.6709 51.4638 31.711 51.1905 31.7704C50.9187 31.8313 50.6514 31.91 50.39 32.0095C50.1286 32.109 49.8762 32.2278 49.6326 32.3644C49.389 32.5011 49.1573 32.6541 48.9361 32.8248C48.7148 32.9956 48.5083 33.1828 48.3153 33.3833C48.2559 33.4442 48.1846 33.4753 48.0999 33.4753Z" fill="#080717"/>
<path d="M53.7345 36.8951C53.7345 37.0198 53.7226 37.1431 53.6974 37.2649C53.6736 37.3867 53.638 37.5055 53.5905 37.6213C53.5415 37.7357 53.4835 37.8456 53.4137 37.9495C53.3454 38.052 53.2667 38.1486 53.1791 38.2362C53.09 38.3238 52.9949 38.4025 52.891 38.4723C52.787 38.5421 52.6786 38.6001 52.5627 38.6476C52.4484 38.6951 52.3296 38.7307 52.2078 38.756C52.0845 38.7798 51.9612 38.7916 51.838 38.7916C51.7132 38.7916 51.59 38.7798 51.4667 38.756C51.3449 38.7307 51.2261 38.6951 51.1117 38.6476C50.9959 38.6001 50.8875 38.5421 50.7835 38.4723C50.6796 38.4025 50.5845 38.3238 50.4954 38.2362C50.4078 38.1486 50.3291 38.052 50.2607 37.9495C50.1909 37.8456 50.133 37.7357 50.0855 37.6213C50.0365 37.5055 50.0008 37.3867 49.9771 37.2649C49.9533 37.1431 49.9399 37.0198 49.9399 36.8951C49.9399 36.7703 49.9533 36.6471 49.9771 36.5253C50.0008 36.4035 50.0365 36.2847 50.0855 36.1688C50.133 36.0545 50.1909 35.9446 50.2607 35.8406C50.3291 35.7381 50.4078 35.6416 50.4954 35.554C50.5845 35.4664 50.6796 35.3876 50.7835 35.3178C50.8875 35.248 50.9959 35.1901 51.1117 35.1426C51.2261 35.0951 51.3449 35.0594 51.4667 35.0342C51.59 35.0104 51.7132 34.9985 51.838 34.9985C51.9612 34.9985 52.0845 35.0104 52.2078 35.0342C52.3296 35.0594 52.4484 35.0951 52.5627 35.1426C52.6786 35.1901 52.787 35.248 52.891 35.3178C52.9949 35.3876 53.09 35.4664 53.1791 35.554C53.2667 35.6416 53.3454 35.7381 53.4137 35.8406C53.4835 35.9446 53.5415 36.0545 53.5905 36.1688C53.638 36.2847 53.6736 36.4035 53.6974 36.5253C53.7226 36.6471 53.7345 36.7703 53.7345 36.8951Z" fill="#080717"/>
<path d="M59.4419 41.7712C58.6666 41.7712 57.6552 41.6643 57.3107 41.1489C57.1488 40.9053 56.9439 39.8969 58.5449 35.8053C58.5746 35.7281 58.6265 35.6731 58.7023 35.639C58.778 35.6063 58.8538 35.6048 58.931 35.6345C59.0082 35.6642 59.0617 35.7177 59.0958 35.7934C59.1285 35.8692 59.1285 35.9449 59.0988 36.0221C58.3072 38.0434 57.6003 40.4538 57.8067 40.8192C58.0473 41.1801 59.427 41.2202 60.284 41.134C60.3657 41.1266 60.4369 41.1474 60.5008 41.1994C60.5647 41.2514 60.6003 41.3182 60.6092 41.3999C60.6167 41.4816 60.5959 41.5543 60.5439 41.6182C60.4919 41.6821 60.4251 41.7177 60.3434 41.7266C60.1993 41.74 59.8548 41.7712 59.4419 41.7712Z" fill="#080717"/>
<path d="M71.8964 42.2292C71.9024 42.342 71.892 42.4534 71.8653 42.5663C71.8385 42.6777 71.794 42.7876 71.7346 42.8945C71.6752 43.0015 71.6009 43.1054 71.5103 43.2034C71.4197 43.3029 71.3172 43.395 71.1999 43.4812C71.0826 43.5673 70.9548 43.646 70.8152 43.7173C70.6771 43.7871 70.5286 43.848 70.3727 43.9C70.2167 43.9534 70.0548 43.995 69.887 44.0262C69.7207 44.0574 69.5514 44.0782 69.3791 44.0886C69.2068 44.099 69.036 44.0975 68.8667 44.0856C68.6974 44.0737 68.5311 44.05 68.3707 44.0158C68.2088 43.9831 68.0558 43.9386 67.9088 43.8851C67.7632 43.8302 67.6266 43.7678 67.5004 43.695C67.3741 43.6237 67.2613 43.5435 67.1603 43.4559C67.0593 43.3683 66.9731 43.2747 66.9018 43.1737C66.8291 43.0742 66.7741 42.9703 66.734 42.8633C66.6939 42.7549 66.6702 42.645 66.6642 42.5321C66.6583 42.4208 66.6687 42.3079 66.6954 42.1965C66.7221 42.0851 66.7652 41.9752 66.8261 41.8668C66.8855 41.7599 66.9598 41.6574 67.0504 41.5579C67.141 41.4599 67.2434 41.3663 67.3608 41.2802C67.4781 41.194 67.6058 41.1153 67.7454 41.0455C67.8835 40.9742 68.0321 40.9133 68.188 40.8613C68.3439 40.8094 68.5058 40.7678 68.6736 40.7351C68.84 40.7039 69.0093 40.6831 69.1816 40.6727C69.3538 40.6638 69.5246 40.6653 69.6939 40.6772C69.8633 40.6891 70.0281 40.7113 70.19 40.7455C70.3519 40.7797 70.5048 40.8227 70.6519 40.8777C70.7974 40.9311 70.9341 40.9935 71.0603 41.0663C71.1865 41.1391 71.2994 41.2193 71.4004 41.3069C71.5014 41.3945 71.5875 41.4881 71.6588 41.5876C71.7316 41.6871 71.7865 41.791 71.8266 41.8995C71.8667 42.0079 71.889 42.1178 71.8964 42.2292Z" fill="#5865F2"/>
<path d="M52.2065 42.2292C52.2139 42.342 52.2035 42.4534 52.1753 42.5663C52.1486 42.6777 52.1055 42.7876 52.0461 42.8945C51.9852 43.0014 51.911 43.1054 51.8204 43.2034C51.7312 43.3029 51.6273 43.395 51.51 43.4812C51.3941 43.5673 51.2649 43.646 51.1268 43.7173C50.9872 43.7871 50.8387 43.848 50.6827 43.9C50.5268 43.9519 50.3649 43.995 50.1986 44.0262C50.0307 44.0574 49.8614 44.0782 49.6892 44.0886C49.5184 44.099 49.3476 44.0975 49.1768 44.0856C49.0075 44.0737 48.8426 44.05 48.6807 44.0158C48.5203 43.9831 48.3659 43.9386 48.2188 43.8851C48.0733 43.8302 47.9367 43.7678 47.8104 43.695C47.6842 43.6237 47.5713 43.5435 47.4703 43.4559C47.3693 43.3683 47.2832 43.2747 47.2119 43.1737C47.1406 43.0742 47.0842 42.9703 47.0441 42.8618C47.004 42.7549 46.9817 42.645 46.9743 42.5321C46.9683 42.4207 46.9787 42.3079 47.0055 42.1965C47.0322 42.0851 47.0768 41.9752 47.1362 41.8668C47.1956 41.7599 47.2713 41.6574 47.3604 41.5579C47.451 41.4598 47.5535 41.3663 47.6708 41.2801C47.7881 41.194 47.9159 41.1153 48.0555 41.0455C48.1951 40.9742 48.3421 40.9133 48.4981 40.8613C48.654 40.8093 48.8159 40.7678 48.9837 40.7351C49.15 40.7039 49.3208 40.6831 49.4916 40.6727C49.6639 40.6638 49.8347 40.6638 50.004 40.6772C50.1733 40.6891 50.3397 40.7113 50.5 40.7455C50.6619 40.7796 50.8149 40.8227 50.9619 40.8777C51.109 40.9311 51.2441 40.9935 51.3704 41.0663C51.4966 41.1391 51.6095 41.2193 51.7105 41.3069C51.8114 41.3945 51.8976 41.4881 51.9704 41.5876C52.0416 41.6871 52.0966 41.791 52.1367 41.8995C52.1768 42.0079 52.2006 42.1178 52.2065 42.2292Z" fill="#5865F2"/>
<path d="M38.7865 33.7961C38.9544 33.698 39.1341 33.649 39.3286 33.649C39.5217 33.649 39.7029 33.698 39.8707 33.7961C40.395 34.1391 41.0083 35.8545 42.1831 35.3124C43.3564 34.7689 42.3688 31.6901 43.8628 27.3267C45.3569 22.9618 49.2584 19.589 49.2584 19.589C49.2584 19.589 54.0733 21.0341 61.5897 20.0227C69.1061 19.0113 74.1646 25.0604 75.1745 27.5034C76.1859 29.9465 75.8977 34.4495 76.8126 35.1476C77.7275 35.8471 78.574 35.0109 78.8844 34.3055C79.1933 33.6015 80.6295 34.4258 80.6295 34.4258L81.075 27.5034C83.6919 22.8697 83.432 20.5336 82.6404 19.2519C81.3973 17.2395 78.8621 17.8722 74.9339 15.784C70.7012 13.534 70.2422 10.9914 67.8036 9.42459C64.9952 7.6216 59.5832 7.12704 48.0539 13.9528C46.551 13.9484 45.1371 14.3019 43.8138 15.0132C39.045 17.6494 37.0281 25.1762 38.7865 33.7961Z" fill="#080717"/>
<path d="M15.6818 90.0754C15.5555 90.0754 15.4664 90.019 15.4129 89.9046C15.3595 89.7917 15.3728 89.6863 15.453 89.5897C20.3169 83.6966 19.7541 77.7753 19.7481 77.7159C19.7407 77.6357 19.763 77.5644 19.815 77.502C19.8669 77.4396 19.9323 77.404 20.0125 77.3951C20.0927 77.3877 20.164 77.407 20.2278 77.4575C20.2917 77.508 20.3273 77.5718 20.3392 77.652C20.3659 77.903 20.9422 83.8719 15.9105 89.9685C15.8511 90.0397 15.7753 90.0754 15.6818 90.0754Z" fill="#080717"/>
<path d="M63.9791 37.7023C63.9583 37.7023 63.9375 37.6993 63.9167 37.6949C63.8365 37.6785 63.7742 37.6355 63.7296 37.5657C63.685 37.4974 63.6702 37.4231 63.688 37.3429C63.7534 37.028 63.8692 36.734 64.037 36.4607C64.2034 36.1874 64.4113 35.9483 64.6593 35.7463C64.9088 35.5444 65.1836 35.3899 65.4865 35.2815C65.788 35.1746 66.0999 35.1211 66.4207 35.1211C66.7415 35.1211 67.0519 35.1746 67.3549 35.2815C67.6564 35.3899 67.9326 35.5444 68.1806 35.7463C68.4301 35.9483 68.6381 36.1874 68.8044 36.4607C68.9707 36.734 69.0866 37.028 69.1534 37.3429C69.1712 37.4231 69.1579 37.4988 69.1133 37.5686C69.0688 37.6384 69.0064 37.683 68.9247 37.6993C68.843 37.7172 68.7688 37.7023 68.6989 37.6563C68.6291 37.6117 68.5876 37.5478 68.5712 37.4662C68.5207 37.2181 68.4286 36.9865 68.298 36.7711C68.1658 36.5558 68.0024 36.3671 67.8064 36.2082C67.6118 36.0493 67.3935 35.9275 67.1559 35.8429C66.9182 35.7582 66.6732 35.7152 66.4207 35.7152C66.1682 35.7152 65.9232 35.7582 65.6841 35.8429C65.4464 35.9275 65.2296 36.0493 65.0336 36.2082C64.8375 36.3671 64.6742 36.5558 64.5435 36.7711C64.4113 36.9865 64.3207 37.2181 64.2687 37.4662C64.2553 37.5345 64.2197 37.5909 64.1662 37.6355C64.1113 37.68 64.0489 37.7023 63.9791 37.7023Z" fill="#080717"/>
<path d="M40.6475 39.7123C40.5881 39.7123 40.5346 39.6959 40.4856 39.6648C39.6554 39.1271 39.2262 38.5019 39.2098 37.8083C39.2217 37.5098 39.2856 37.2217 39.4029 36.9469C39.5202 36.6707 39.6836 36.4256 39.893 36.2118H38.5519C38.4702 36.2118 38.3989 36.1821 38.341 36.1241C38.2831 36.0662 38.2549 35.9964 38.2549 35.9132C38.2549 35.8316 38.2831 35.7618 38.341 35.7038C38.3989 35.6459 38.4702 35.6162 38.5519 35.6162H40.6475C40.7113 35.6162 40.7693 35.6355 40.8227 35.6741C40.8747 35.7113 40.9104 35.7618 40.9297 35.8226C40.9504 35.8835 40.9504 35.9459 40.9297 36.0068C40.9089 36.0677 40.8732 36.1182 40.8212 36.1553C40.8108 36.1627 39.7831 36.9157 39.8039 37.7964C39.8173 38.2806 40.1544 38.741 40.8094 39.1657C40.8643 39.2014 40.9029 39.2504 40.9252 39.3113C40.949 39.3737 40.9504 39.436 40.9326 39.4984C40.9133 39.5623 40.8777 39.6128 40.8242 39.6529C40.7722 39.6915 40.7128 39.7123 40.6475 39.7123Z" fill="#080717"/>
<path d="M77.9323 39.8202C77.8699 39.8202 77.812 39.8009 77.76 39.7638C77.708 39.7281 77.6724 39.6791 77.6516 39.6197C77.6308 39.5588 77.6293 39.4979 77.6471 39.437C77.6664 39.3761 77.7006 39.3271 77.7496 39.287C78.5233 38.6855 78.9095 38.0989 78.8679 37.588C78.8144 36.936 78.0882 36.5365 78.0808 36.5335C78.0214 36.5009 77.9768 36.4533 77.9501 36.391C77.9219 36.3286 77.9159 36.2647 77.9337 36.1979C77.9501 36.1325 77.9842 36.0776 78.0392 36.036C78.0927 35.9944 78.1535 35.9736 78.2219 35.9736H80.4971C80.5803 35.9736 80.6501 36.0019 80.708 36.0613C80.7659 36.1192 80.7956 36.189 80.7956 36.2707C80.7956 36.3523 80.7659 36.4236 80.708 36.4816C80.6501 36.5395 80.5803 36.5677 80.4971 36.5677H79.0372C79.2808 36.8454 79.4219 37.1662 79.4605 37.5331C79.5243 38.2652 79.0714 39.0138 78.1149 39.7563C78.0615 39.7994 78.0006 39.8202 77.9323 39.8202Z" fill="#080717"/>
<path d="M60.0215 49.136C59.5358 49.133 59.0606 49.0632 58.5957 48.9236C58.1294 48.7855 57.6927 48.5835 57.2858 48.3191C56.8789 48.0562 56.5165 47.7399 56.1987 47.3731C55.8823 47.0048 55.6224 46.6008 55.4219 46.1582C55.3729 46.0528 55.3833 45.9518 55.4531 45.8582C55.5214 45.7632 55.6135 45.7231 55.7308 45.7394C58.7145 46.124 61.6433 45.8716 64.5156 44.9805C64.627 44.9448 64.725 44.9686 64.8096 45.0488C64.8943 45.129 64.921 45.2255 64.8913 45.3384C64.826 45.5953 64.7413 45.8448 64.6373 46.0869C64.5319 46.3305 64.4101 46.5637 64.2675 46.7864C64.1265 47.0107 63.969 47.2216 63.7953 47.4191C63.62 47.6181 63.4314 47.8023 63.2279 47.9716C63.0245 48.1409 62.8091 48.2924 62.5819 48.4275C62.3547 48.5627 62.1185 48.6785 61.8735 48.7765C61.6284 48.8746 61.3759 48.9533 61.1175 49.0112C60.8606 49.0706 60.5992 49.1077 60.3363 49.1256C60.2309 49.133 60.1254 49.136 60.0215 49.136ZM56.218 46.3943C56.4318 46.7493 56.6903 47.0686 56.9947 47.3523C57.2977 47.6345 57.6333 47.8691 58.0031 48.0577C58.3729 48.2463 58.7606 48.38 59.1675 48.4587C59.5744 48.5389 59.9843 48.5612 60.3972 48.5256C60.8101 48.4884 61.2096 48.3978 61.5972 48.2493C61.9849 48.1008 62.3443 47.9033 62.6755 47.6538C63.0066 47.4043 63.2977 47.1147 63.5487 46.7849C63.7982 46.4538 63.9987 46.0958 64.1472 45.7097C61.5482 46.4404 58.9046 46.6691 56.218 46.3943Z" fill="#080717"/>
<path d="M33.8317 91.0624H33.8288C33.7471 91.0624 33.6773 91.0327 33.6193 90.9748C33.5614 90.9154 33.5332 90.8456 33.5332 90.7624C33.5629 87.0747 33.5332 73.6207 33.5332 73.4855C33.5332 73.4038 33.5629 73.334 33.6208 73.2761C33.6787 73.2182 33.7486 73.1885 33.8317 73.1885C33.9134 73.1885 33.9832 73.2182 34.0411 73.2761C34.099 73.334 34.1288 73.4038 34.1288 73.4855C34.1288 73.6221 34.1585 87.0777 34.1288 90.7698C34.1273 90.8515 34.0976 90.9198 34.0396 90.9777C33.9817 91.0342 33.9119 91.0624 33.8317 91.0624Z" fill="white"/>
<path d="M80.8585 75.744C80.7813 75.744 80.713 75.7173 80.6565 75.6638C80.5986 75.6119 80.5674 75.545 80.5615 75.4678L80.162 69.6385C80.156 69.5554 80.1813 69.4841 80.2348 69.4217C80.2882 69.3593 80.3565 69.3267 80.4397 69.3207C80.5214 69.3148 80.5927 69.3385 80.6551 69.3935C80.7174 69.447 80.7516 69.5153 80.756 69.597L81.157 75.4262C81.1615 75.5079 81.1377 75.5807 81.0843 75.6416C81.0293 75.7039 80.9625 75.7381 80.8808 75.744C80.8734 75.744 80.866 75.744 80.8585 75.744Z" fill="white"/>
<path d="M40.6474 28.4134C40.6251 28.4134 40.6043 28.4119 40.582 28.4075C40.5018 28.3897 40.4409 28.3451 40.3964 28.2768C40.3518 28.207 40.3384 28.1327 40.3563 28.0525C41.8251 21.4495 44.3291 19.9257 44.436 19.8634C44.5058 19.8218 44.5816 19.8114 44.6618 19.8322C44.7405 19.853 44.8014 19.899 44.8429 19.9688C44.8845 20.0401 44.8949 20.1158 44.8741 20.1946C44.8533 20.2748 44.8073 20.3342 44.736 20.3757C44.7004 20.398 42.336 21.8921 40.937 28.1817C40.9221 28.2501 40.888 28.305 40.833 28.3481C40.7795 28.3926 40.7172 28.4134 40.6474 28.4134Z" fill="white"/>
<path d="M59.2609 19.0633C56.0856 19.0633 51.5217 18.0103 51.2767 17.9539C51.1965 17.9346 51.1341 17.89 51.091 17.8202C51.0479 17.7504 51.0361 17.6762 51.0539 17.596C51.0732 17.5158 51.1177 17.4549 51.1875 17.4118C51.2559 17.3687 51.3316 17.3554 51.4118 17.3747C51.4875 17.3925 58.9935 19.1242 61.2866 18.2064C61.698 18.0415 62.1985 17.7653 62.2475 17.3762C62.3069 16.9113 61.7352 16.3826 61.5109 16.2177C61.4545 16.1761 61.4173 16.1212 61.3995 16.0544C61.3802 15.9875 61.3861 15.9207 61.4144 15.8568C61.4426 15.793 61.4871 15.7454 61.5495 15.7128C61.6104 15.6816 61.6757 15.6712 61.7441 15.686C61.796 15.6964 66.9629 16.693 70.003 14.7147C70.0714 14.6717 70.1456 14.6583 70.2243 14.6761C70.3045 14.6925 70.3669 14.7355 70.41 14.8039C70.4545 14.8722 70.4694 14.9464 70.453 15.0251C70.4367 15.1053 70.3951 15.1677 70.3268 15.2123C67.8451 16.8281 64.1961 16.6157 62.5223 16.4063C62.7614 16.7138 62.8668 17.0613 62.8371 17.4489C62.7688 17.9925 62.3218 18.4321 61.5079 18.7574C60.7772 18.9935 60.0287 19.096 59.2609 19.0633Z" fill="white"/>
<path d="M75.3202 22.7306C75.2147 22.7306 75.1331 22.6876 75.0737 22.6014C73.0004 19.5598 67.2736 18.4965 67.2157 18.4861C67.134 18.4727 67.0686 18.4326 67.0211 18.3643C66.9736 18.2974 66.9572 18.2217 66.9721 18.14C66.987 18.0583 67.0285 17.9945 67.0969 17.9484C67.1652 17.9009 67.2394 17.8861 67.3211 17.9024C67.5662 17.9455 73.3524 19.0207 75.5652 22.2658C75.6321 22.3638 75.638 22.4663 75.5831 22.5717C75.5266 22.6772 75.439 22.7306 75.3202 22.7306Z" fill="white"/>
<path d="M78.4984 22.4898C78.43 22.4898 78.3692 22.469 78.3157 22.4259C78.2607 22.3843 78.2266 22.3294 78.2102 22.2626C77.5449 19.5596 74.1572 19.068 74.1231 19.0635C74.0414 19.0516 73.976 19.0145 73.927 18.9492C73.8765 18.8838 73.8572 18.8096 73.8691 18.7294C73.8795 18.6477 73.9181 18.5823 73.9835 18.5318C74.0488 18.4828 74.1216 18.4635 74.2033 18.4739C74.3577 18.4947 78.0261 19.0219 78.788 22.1215C78.8073 22.2017 78.7954 22.2759 78.7538 22.3457C78.7107 22.417 78.6498 22.4616 78.5697 22.4809C78.5459 22.4868 78.5221 22.4898 78.4984 22.4898Z" fill="white"/>
<path d="M13.2983 50.2251C13.2686 50.2251 13.2404 50.2206 13.2122 50.2132C13.1334 50.1894 13.0755 50.1404 13.0354 50.0691C12.9968 49.9963 12.9894 49.9206 13.0131 49.8434C13.3755 48.6241 14.4151 47.5325 15.0538 46.9518C13.3919 46.7008 11.7003 46.2582 11.7359 45.5052C11.7522 45.1547 12.0478 44.7404 15.3864 43.8819C17.0765 43.4468 18.786 43.1007 18.8023 43.0963C18.8825 43.08 18.9568 43.0948 19.0251 43.1394C19.0949 43.1854 19.1365 43.2478 19.1528 43.328C19.1691 43.4097 19.1558 43.4839 19.1097 43.5522C19.0652 43.6206 19.0013 43.6621 18.9211 43.68C16.0503 44.2592 12.7919 45.128 12.3463 45.5572C12.5542 45.826 14.1285 46.2448 15.7919 46.4528C15.9241 46.4691 16.0072 46.5419 16.0429 46.6711C16.077 46.8003 16.0414 46.9042 15.9345 46.9844C15.9166 46.9993 14.0542 48.4295 13.5834 50.0127C13.5641 50.0751 13.5285 50.127 13.475 50.1657C13.423 50.2058 13.3636 50.2251 13.2983 50.2251Z" fill="#080717"/>
<path d="M8.53385 48.287H8.52048C7.39176 48.2588 6.56155 45.0241 6.33581 44.0335C6.31947 43.9548 6.33284 43.8805 6.37739 43.8137C6.42046 43.7453 6.48136 43.7023 6.56007 43.6845C6.63878 43.6666 6.71304 43.6785 6.78136 43.7201C6.85116 43.7632 6.89572 43.8226 6.91502 43.9013C7.368 45.878 8.10761 47.6246 8.51454 47.6914C8.8591 47.3899 8.96157 44.7939 8.73731 41.9676C8.73137 41.8859 8.75514 41.8132 8.80712 41.7508C8.86058 41.6884 8.9289 41.6542 9.01058 41.6483C9.09227 41.6409 9.16504 41.6646 9.22742 41.7181C9.28979 41.7716 9.32395 41.8384 9.32989 41.9201C9.73237 46.9889 9.07742 47.9587 8.94227 48.1013C8.83385 48.2246 8.69722 48.2855 8.53385 48.287Z" fill="#080717"/>
<path d="M10.6233 47.9972C9.50498 47.9972 8.95844 45.9195 8.8619 45.5036C8.84111 45.4219 8.85151 45.3462 8.89458 45.2749C8.93765 45.2021 9.00002 45.1576 9.08171 45.1383C9.16339 45.119 9.23914 45.1308 9.30894 45.1769C9.38023 45.2214 9.42329 45.2853 9.44112 45.367C9.63419 46.1883 10.1451 47.4016 10.6233 47.4016C11.0139 47.2338 11.7698 44.5561 12.254 41.5575C12.2644 41.4759 12.3045 41.4105 12.3713 41.36C12.4382 41.311 12.5124 41.2932 12.5956 41.3065C12.6773 41.3199 12.7426 41.36 12.7902 41.4283C12.8392 41.4966 12.8555 41.5709 12.8406 41.6526C12.3743 44.5472 11.6095 47.9972 10.6233 47.9972Z" fill="#080717"/>
<path d="M12.5855 48.1045C12.5261 48.1045 12.4682 48.0986 12.4088 48.0882C11.791 47.9679 11.3499 47.2431 11.2845 46.2451C11.2786 46.1634 11.3038 46.0907 11.3573 46.0283C11.4123 45.9674 11.4806 45.9332 11.5623 45.9273C11.6454 45.9228 11.7167 45.9466 11.7791 46.0015C11.84 46.0565 11.8742 46.1248 11.8786 46.2065C11.9291 46.9788 12.2484 47.4511 12.5247 47.506C12.6717 47.5134 12.8098 47.4793 12.936 47.402C13.343 47.1926 13.6252 46.8733 13.7811 46.4426C13.8093 46.3639 13.8613 46.3075 13.937 46.2718C14.0128 46.2377 14.09 46.2362 14.1687 46.2659C14.246 46.2971 14.3009 46.3506 14.3336 46.4278C14.3663 46.505 14.3663 46.5822 14.3336 46.6595C14.2311 46.9372 14.0811 47.1882 13.8836 47.4095C13.686 47.6308 13.4544 47.8075 13.1885 47.9412C12.9999 48.0407 12.7994 48.0956 12.5855 48.1045Z" fill="#080717"/>
<path d="M15.3017 44.4447C15.2527 44.4447 15.2051 44.4329 15.1621 44.4091C15.1175 44.3853 15.0819 44.3527 15.0551 44.3111C15.0269 44.2695 15.0106 44.2249 15.0061 44.1744C15.0017 44.1254 15.0091 44.0779 15.0284 44.0319L16.1126 41.4492C16.1438 41.3734 16.1972 41.32 16.273 41.2888C16.3502 41.2576 16.4245 41.2591 16.5002 41.2903C16.576 41.3214 16.6294 41.3749 16.6606 41.4507C16.6918 41.5264 16.6918 41.6021 16.6606 41.6779L15.5764 44.2621C15.5259 44.3839 15.4339 44.4447 15.3017 44.4447Z" fill="#080717"/>
</svg>
