<svg width="138" height="26" viewBox="0 0 138 26" fill="none" xmlns="http://www.w3.org/2000/svg">
<mask id="mask0_362_790" style="mask-type:luminance" maskUnits="userSpaceOnUse" x="0" y="0" width="27" height="26">
<path d="M1 1H25.3555V24.8353H1V1Z" fill="white" stroke="white" stroke-width="1.5"/>
</mask>
<g mask="url(#mask0_362_790)">
<path d="M24.0488 7.90964C22.9618 6.71306 21.2731 6.0885 19.5971 6.17095C18.9335 5.09403 17.9567 4.21191 16.7802 3.60924C16.4559 2.5761 15.6393 1.72025 14.5016 1.32479C13.0658 0.826459 11.3541 1.23651 10.3734 2.32511C10.0293 2.7067 9.78349 3.14593 9.64157 3.60924C8.4674 4.21483 7.49064 5.09475 6.82784 6.17022C5.19304 6.08996 3.54793 6.68169 2.45701 7.82282C1.24161 9.09455 0.83568 10.8413 1.37956 12.4603C1.60472 13.1301 2.75035 12.8441 2.5244 12.1699C2.09468 10.8916 2.3801 9.50314 3.37827 8.51085C4.35978 7.53534 5.74802 7.1377 7.16717 7.288C7.35824 7.30843 7.5953 7.17199 7.67934 7.01731C8.12569 6.19867 8.74885 5.51429 9.52661 4.97874C9.58687 5.42527 9.74147 5.86378 9.99834 6.26726C10.7872 7.50689 12.361 8.15334 13.8911 7.90526C15.4974 7.64479 16.6676 6.41829 16.8959 4.97874C17.6737 5.51283 18.2984 6.19649 18.7464 7.01804C18.8304 7.17272 19.0675 7.30916 19.2585 7.28873C20.6999 7.13478 22.1056 7.54994 23.0895 8.55317C24.0028 9.4849 24.3271 10.8186 23.9513 12.0218C23.5826 13.2038 22.5527 14.1683 21.285 14.5529C20.6975 14.7316 20.1084 14.7601 19.5003 14.7601C15.9937 14.7601 12.487 14.7601 8.98036 14.7601C7.39075 14.7601 5.71155 14.9381 4.28843 14.1822C4.2361 14.137 4.17585 14.1049 4.11004 14.0837C3.58044 13.8116 3.09919 14.4099 3.32753 14.8287C4.04107 17.6093 4.7554 20.3891 5.46974 23.1704C5.57359 23.5761 5.67825 23.9825 5.78211 24.3882C5.84236 24.6202 6.10082 24.7895 6.35453 24.7895C9.98725 24.7895 13.62 24.7895 17.2535 24.7895C18.193 24.7895 19.1325 24.7895 20.072 24.7895C20.3249 24.7895 20.5849 24.6202 20.6444 24.3882C21.2319 22.1001 21.8193 19.812 22.4068 17.5239C22.582 16.841 21.4388 16.5491 21.2628 17.2335C20.7094 19.3888 20.156 21.5427 19.6026 23.698C16.1261 23.698 12.6495 23.698 9.17302 23.698C8.38971 23.698 7.6064 23.698 6.82309 23.698C6.13491 21.0202 5.44754 18.3418 4.76016 15.6648C4.75064 15.6276 4.74113 15.5904 4.73162 15.5532C5.93829 15.907 7.20761 15.8523 8.50863 15.8523C10.608 15.8523 12.7082 15.8523 14.8084 15.8523C16.4147 15.8523 18.0225 15.8523 19.6288 15.8523C22.077 15.8523 24.3429 14.5966 25.0779 12.3669C25.5868 10.8223 25.1659 9.13906 24.0488 7.90964ZM11.2526 6.02211C9.78904 4.3914 11.3763 1.87566 13.639 2.23463C14.6919 2.40245 15.4736 3.15104 15.6892 4.07474C15.6924 4.10466 15.6987 4.13457 15.7083 4.16376C15.7313 4.28633 15.7463 4.4111 15.7495 4.53805C15.7011 6.66417 12.7582 7.69951 11.2526 6.02211Z" fill="#5865F2" stroke="#5865F2"/>
</g>
<path d="M37.9147 12.7744L35.7082 22.3632L35.5703 22.9448C35.1652 24.5444 34.2645 25.342 32.864 25.342C32.1141 25.342 31.4892 25.0908 30.985 24.5841C30.4765 24.0685 30.2266 23.4207 30.2266 22.6452C30.2266 22.5042 30.2309 22.3455 30.2438 22.1693C30.2524 21.993 30.2826 21.83 30.33 21.6757L30.4679 21.1117L34.5877 3.29143C34.7472 2.57756 35.0532 2.01792 35.5013 1.61692C35.9582 1.20711 36.4925 1 37.1045 1C38.2766 1 39.1213 1.69624 39.6384 3.07991L43.4308 13.7439L47.0852 3.41481C47.3825 2.56875 47.7402 1.96064 48.1539 1.58167C48.5677 1.19389 49.0762 1 49.6881 1C50.3432 1 50.8948 1.21152 51.3429 1.63455C51.7998 2.04877 52.123 2.63925 52.3083 3.41481L56.566 21.0764L56.7039 21.6405C56.7729 22.0062 56.8074 22.3632 56.8074 22.7157C56.8074 23.4472 56.5488 24.0685 56.0316 24.5841C55.5231 25.0908 54.9026 25.342 54.17 25.342C53.4891 25.342 52.9159 25.1437 52.4462 24.7427C51.9851 24.3329 51.6618 23.7468 51.4809 22.9801L51.3257 22.3632L49.0503 12.7744L45.9303 23.0506L45.7579 23.5441C45.5596 24.1214 45.258 24.5753 44.8443 24.9014C44.4392 25.2186 43.9824 25.3773 43.4652 25.3773C42.2931 25.3773 41.4743 24.6017 41.0175 23.0506L37.9147 12.7744Z" fill="#5865F2"/>
<path d="M61.063 4.66629V4.04936C61.063 3.12398 61.2957 2.38367 61.7697 1.82844C62.2524 1.27762 62.9074 1 63.7349 1C64.5493 1 65.2044 1.28202 65.7 1.84607C66.1913 2.41011 66.4412 3.14601 66.4412 4.04936V15.8238C66.4412 16.4495 66.5446 17.0224 66.7515 17.5512C66.9583 18.08 67.2385 18.5382 67.5961 18.926C67.9624 19.305 68.3977 19.609 68.9062 19.8426C69.4104 20.0673 69.9577 20.1775 70.5438 20.1775C71.2204 20.1775 71.8582 20.0189 72.4572 19.7016C73.0519 19.3755 73.5432 18.9348 73.9224 18.3796C74.1724 17.9918 74.3577 17.604 74.4741 17.2163C74.5861 16.8197 74.6464 16.3085 74.6464 15.6828V4.04936C74.668 3.12398 74.9222 2.38367 75.4049 1.82844C75.8876 1.27762 76.5254 1 77.3183 1C78.1328 1 78.7878 1.28202 79.2834 1.84607C79.7747 2.41011 80.0246 3.14601 80.0246 4.04936V15.6828C80.0246 17.0708 79.7833 18.362 79.3007 19.5606C78.818 20.7592 78.1543 21.8079 77.3183 22.6981C76.478 23.5794 75.4825 24.2756 74.3361 24.778C73.1855 25.2715 71.9444 25.5183 70.6128 25.5183C69.2768 25.5183 68.0314 25.2715 66.8722 24.778C65.7086 24.2756 64.7002 23.5882 63.8383 22.7157C62.9764 21.8344 62.2955 20.8032 61.8042 19.6134C61.3086 18.4281 61.063 17.1634 61.063 15.8238V4.66629Z" fill="#5865F2"/>
<path d="M85.7891 21.7119V4.4204C85.8322 2.2832 86.875 1.2124 88.9091 1.2124H98.8037C99.6526 1.23884 100.321 1.47239 100.803 1.91746C101.295 2.36693 101.544 2.97063 101.544 3.73297C101.544 4.49972 101.29 5.10783 100.786 5.56612C100.29 6.01559 99.6311 6.23592 98.8037 6.23592H91.15V10.9069H97.1661C97.9116 10.9333 98.5106 11.1493 98.9588 11.5591C99.4156 11.9733 99.6483 12.5241 99.6483 13.216C99.6483 13.8858 99.4156 14.4322 98.9588 14.8552C98.5106 15.2694 97.9116 15.4721 97.1661 15.4721H91.15V22.3288C91.15 23.2718 90.9087 24.0209 90.426 24.585C89.952 25.1402 89.3099 25.4134 88.4954 25.4134C87.668 25.4134 87.0043 25.127 86.5131 24.5497C86.0304 23.9769 85.7891 23.2366 85.7891 22.3288V21.7119Z" fill="#5865F2"/>
<path d="M105.877 21.711V4.04936C105.899 3.12398 106.144 2.38367 106.618 1.82844C107.101 1.27762 107.756 1 108.583 1C109.398 1 110.04 1.28202 110.514 1.84607C110.997 2.41011 111.238 3.14601 111.238 4.04936V22.3279C111.238 23.2709 110.997 24.02 110.514 24.5841C110.04 25.1393 109.398 25.4125 108.583 25.4125C107.756 25.4125 107.092 25.1261 106.601 24.5488C106.118 23.976 105.877 23.2357 105.877 22.3279V21.711Z" fill="#5865F2"/>
<path d="M123.072 11.2762V22.3279C123.072 23.2709 122.831 24.02 122.348 24.5841C121.874 25.1393 121.232 25.4125 120.417 25.4125C119.59 25.4125 118.926 25.1261 118.435 24.5488C117.952 23.976 117.711 23.2357 117.711 22.3279V4.19037C117.711 3.6748 117.737 3.28261 117.797 3.00941C117.853 2.72738 117.974 2.45418 118.159 2.18097C118.676 1.39659 119.374 1 120.262 1C120.753 1 121.18 1.11457 121.538 1.3349C121.904 1.54642 122.322 1.96504 122.796 2.58637L132.622 15.2597V4.04936C132.643 3.12398 132.897 2.38367 133.38 1.82844C133.863 1.27762 134.501 1 135.294 1C136.121 1 136.776 1.28202 137.259 1.84607C137.75 2.41011 138 3.14601 138 4.04936V21.9049C138 22.5747 137.974 23.0638 137.931 23.3679C137.884 23.6631 137.767 23.9407 137.586 24.1963C137.319 24.6105 136.97 24.9322 136.535 25.1658C136.108 25.3993 135.647 25.5183 135.156 25.5183C134.66 25.5183 134.242 25.4037 133.897 25.1834C133.561 24.9631 133.139 24.5048 132.622 23.8085L123.072 11.2762Z" fill="#5865F2"/>
</svg>
