<svg width="30" height="40" viewBox="0 0 30 40" fill="none" xmlns="http://www.w3.org/2000/svg">
<mask id="mask0_131_910" style="mask-type:luminance" maskUnits="userSpaceOnUse" x="0" y="0" width="30" height="33">
<path d="M0 0H30V32.6214H0V0Z" fill="white"/>
</mask>
<g mask="url(#mask0_131_910)">
<path d="M28.3905 9.45657C27.0517 7.81891 24.9716 6.96413 22.9071 7.07697C22.0898 5.60308 20.8866 4.3958 19.4374 3.57098C19.038 2.15701 18.0321 0.98568 16.6308 0.444454C14.8622 -0.237571 12.7538 0.323626 11.5458 1.8135C11.122 2.33575 10.8192 2.93689 10.6444 3.57098C9.19815 4.3998 7.99502 5.60408 7.17862 7.07597C5.16495 6.96613 3.13858 7.77597 1.79483 9.33774C0.297759 11.0782 -0.202241 13.4688 0.467681 15.6847C0.745025 16.6014 2.15616 16.2099 1.87784 15.2872C1.34854 13.5377 1.7001 11.6375 2.9296 10.2794C4.13858 8.9443 5.84854 8.40008 7.59659 8.60579C7.83194 8.63375 8.12393 8.44701 8.22745 8.23531C8.77725 7.11492 9.54483 6.17826 10.5028 5.4453C10.5771 6.05643 10.7675 6.65657 11.0839 7.20878C12.0556 8.90536 13.994 9.79009 15.8788 9.45058C17.8573 9.09409 19.2987 7.41549 19.58 5.4453C20.538 6.17626 21.3075 7.11192 21.8593 8.23631C21.9628 8.44801 22.2548 8.63474 22.4901 8.60678C24.2655 8.39608 25.997 8.96427 27.2089 10.3373C28.3339 11.6125 28.7333 13.4379 28.2704 15.0845C27.8163 16.7022 26.5478 18.0223 24.9862 18.5486C24.2626 18.7932 23.537 18.8322 22.788 18.8322C18.4687 18.8322 14.1493 18.8322 9.82999 18.8322C7.87198 18.8322 5.80362 19.0758 4.05069 18.0413C3.98624 17.9794 3.91202 17.9354 3.83096 17.9065C3.17862 17.534 2.58585 18.3528 2.8671 18.926C3.746 22.7316 4.62588 26.5361 5.50577 30.3427C5.6337 30.8979 5.7626 31.4541 5.89053 32.0093C5.96475 32.3269 6.28311 32.5585 6.59561 32.5585C11.0702 32.5585 15.5448 32.5585 20.0204 32.5585C21.1776 32.5585 22.3349 32.5585 23.4921 32.5585C23.8036 32.5585 24.1239 32.3269 24.1972 32.0093C24.9208 28.8778 25.6444 25.7463 26.3681 22.6148C26.5839 21.6801 25.1757 21.2807 24.9589 22.2173C24.2773 25.1671 23.5956 28.1149 22.914 31.0647C18.6317 31.0647 14.3495 31.0647 10.0673 31.0647C9.10245 31.0647 8.1376 31.0647 7.17276 31.0647C6.3251 27.3999 5.47842 23.7342 4.63174 20.0704C4.62002 20.0195 4.60831 19.9685 4.59659 19.9176C6.08292 20.4019 7.64639 20.327 9.24893 20.327C11.8349 20.327 14.4218 20.327 17.0087 20.327C18.9872 20.327 20.9677 20.327 22.9462 20.327C25.9618 20.327 28.7528 18.6085 29.6581 15.5568C30.2851 13.4429 29.7665 11.1392 28.3905 9.45657ZM12.6288 6.87326C10.8261 4.64145 12.7812 1.19838 15.5683 1.68967C16.8651 1.91934 17.828 2.94388 18.0937 4.20807C18.0976 4.24901 18.1054 4.28996 18.1171 4.3299C18.1454 4.49766 18.164 4.66841 18.1679 4.84217C18.1083 7.75201 14.4833 9.16898 12.6288 6.87326Z" fill="#5865F2"/>
</g>
<path d="M4.40378 37.112L3.90378 39.2849L3.87253 39.4167C3.78073 39.7792 3.57663 39.96 3.25925 39.96C3.08932 39.96 2.94772 39.903 2.83347 39.7882C2.71823 39.6714 2.66159 39.5246 2.66159 39.3488C2.66159 39.3169 2.66257 39.2809 2.6655 39.241C2.66745 39.201 2.67429 39.1641 2.68503 39.1291L2.71628 39.0013L3.64987 34.9631C3.686 34.8013 3.75534 34.6745 3.8569 34.5836C3.96042 34.4908 4.08151 34.4438 4.22018 34.4438C4.48581 34.4438 4.67722 34.6016 4.7944 34.9152L5.65378 37.3317L6.4819 34.9911C6.54929 34.7993 6.63034 34.6615 6.72409 34.5757C6.81784 34.4878 6.93307 34.4438 7.07175 34.4438C7.22018 34.4438 7.34518 34.4918 7.44675 34.5876C7.55026 34.6815 7.6235 34.8153 7.6655 34.9911L8.63034 38.9933L8.66159 39.1212C8.67722 39.204 8.68503 39.2849 8.68503 39.3648C8.68503 39.5306 8.62643 39.6714 8.50925 39.7882C8.39401 39.903 8.25339 39.96 8.08737 39.96C7.93307 39.96 7.80319 39.915 7.69675 39.8242C7.59225 39.7313 7.51901 39.5985 7.478 39.4247L7.44284 39.2849L6.92722 37.112L6.22018 39.4407L6.18112 39.5525C6.1362 39.6834 6.06784 39.7862 5.97409 39.8601C5.88229 39.932 5.77878 39.9679 5.66159 39.9679C5.39597 39.9679 5.21042 39.7922 5.1069 39.4407L4.40378 37.112Z" fill="#5865F2"/>
<path d="M9.64932 35.2747V35.1349C9.64932 34.9252 9.70206 34.7574 9.80948 34.6316C9.91885 34.5068 10.0673 34.4438 10.2548 34.4438C10.4394 34.4438 10.5878 34.5078 10.7001 34.6356C10.8114 34.7634 10.8681 34.9302 10.8681 35.1349V37.803C10.8681 37.9448 10.8915 38.0747 10.9384 38.1945C10.9853 38.3143 11.0487 38.4182 11.1298 38.506C11.2128 38.5919 11.3114 38.6608 11.4267 38.7137C11.5409 38.7647 11.6649 38.7896 11.7978 38.7896C11.9511 38.7896 12.0956 38.7537 12.2314 38.6818C12.3661 38.6079 12.4774 38.508 12.5634 38.3822C12.62 38.2943 12.662 38.2065 12.6884 38.1186C12.7138 38.0287 12.7274 37.9129 12.7274 37.7711V35.1349C12.7323 34.9252 12.7899 34.7574 12.8993 34.6316C13.0087 34.5068 13.1532 34.4438 13.3329 34.4438C13.5175 34.4438 13.6659 34.5078 13.7782 34.6356C13.8896 34.7634 13.9462 34.9302 13.9462 35.1349V37.7711C13.9462 38.0856 13.8915 38.3782 13.7821 38.6498C13.6728 38.9214 13.5224 39.1591 13.3329 39.3608C13.1425 39.5605 12.9169 39.7183 12.6571 39.8321C12.3964 39.944 12.1151 39.9999 11.8134 39.9999C11.5107 39.9999 11.2284 39.944 10.9657 39.8321C10.7021 39.7183 10.4735 39.5625 10.2782 39.3648C10.0829 39.1651 9.92862 38.9314 9.81729 38.6618C9.70499 38.3932 9.64932 38.1066 9.64932 37.803V35.2747Z" fill="#5865F2"/>
<path d="M15.2526 39.1373V35.2189C15.2623 34.7346 15.4987 34.4919 15.9596 34.4919H18.2018C18.3942 34.4979 18.5455 34.5509 18.6549 34.6517C18.7662 34.7536 18.8229 34.8904 18.8229 35.0631C18.8229 35.2369 18.7653 35.3747 18.651 35.4785C18.5387 35.5804 18.3893 35.6303 18.2018 35.6303H16.4674V36.6888H17.8307C17.9996 36.6948 18.1354 36.7437 18.2369 36.8366C18.3405 36.9305 18.3932 37.0553 18.3932 37.2121C18.3932 37.3638 18.3405 37.4877 18.2369 37.5835C18.1354 37.6774 17.9996 37.7233 17.8307 37.7233H16.4674V39.2771C16.4674 39.4908 16.4127 39.6606 16.3033 39.7884C16.1959 39.9142 16.0504 39.9761 15.8658 39.9761C15.6783 39.9761 15.528 39.9112 15.4166 39.7804C15.3073 39.6506 15.2526 39.4828 15.2526 39.2771V39.1373Z" fill="#5865F2"/>
<path d="M19.8047 39.1371V35.1349C19.8096 34.9252 19.8652 34.7574 19.9727 34.6316C20.082 34.5068 20.2305 34.4438 20.418 34.4438C20.6025 34.4438 20.748 34.5078 20.8555 34.6356C20.9648 34.7634 21.0195 34.9302 21.0195 35.1349V39.2769C21.0195 39.4906 20.9648 39.6604 20.8555 39.7882C20.748 39.914 20.6025 39.9759 20.418 39.9759C20.2305 39.9759 20.0801 39.911 19.9688 39.7802C19.8594 39.6504 19.8047 39.4826 19.8047 39.2769V39.1371Z" fill="#5865F2"/>
<path d="M23.7011 36.7725V39.2769C23.7011 39.4906 23.6464 39.6604 23.537 39.7882C23.4296 39.914 23.2841 39.9759 23.0995 39.9759C22.912 39.9759 22.7616 39.911 22.6503 39.7802C22.5409 39.6504 22.4862 39.4826 22.4862 39.2769V35.1668C22.4862 35.05 22.4921 34.9611 22.5058 34.8992C22.5185 34.8353 22.5458 34.7734 22.5878 34.7115C22.705 34.5337 22.8632 34.4438 23.0644 34.4438C23.1757 34.4438 23.2724 34.4698 23.3534 34.5197C23.4364 34.5677 23.5312 34.6625 23.6386 34.8033L25.8651 37.6752V35.1349C25.87 34.9252 25.9276 34.7574 26.037 34.6316C26.1464 34.5068 26.2909 34.4438 26.4706 34.4438C26.6581 34.4438 26.8065 34.5078 26.9159 34.6356C27.0273 34.7634 27.0839 34.9302 27.0839 35.1349V39.1811C27.0839 39.3329 27.078 39.4437 27.0683 39.5126C27.0575 39.5795 27.0312 39.6424 26.9901 39.7003C26.9296 39.7942 26.8505 39.8671 26.7519 39.92C26.6552 39.9729 26.5507 39.9999 26.4394 39.9999C26.3271 39.9999 26.2323 39.9739 26.1542 39.924C26.078 39.8741 25.9823 39.7702 25.8651 39.6125L23.7011 36.7725Z" fill="#5865F2"/>
</svg>
