<svg width="104" height="27" viewBox="0 0 104 27" fill="none" xmlns="http://www.w3.org/2000/svg">
<mask id="mask0_679_676" style="mask-type:luminance" maskUnits="userSpaceOnUse" x="6" y="0" width="23" height="26">
<path d="M7.48779 1.7998H27.7607V24.6248H7.48779V1.7998Z" fill="white" stroke="white" stroke-width="2"/>
</mask>
<g mask="url(#mask0_679_676)">
<path d="M26.6729 8.41654C25.7682 7.27068 24.3625 6.6726 22.9675 6.75155C22.4151 5.72027 21.6021 4.87555 20.6227 4.29843C20.3528 3.30907 19.6731 2.4895 18.7261 2.11081C17.531 1.6336 16.1062 2.02627 15.2899 3.06872C15.0035 3.43414 14.7989 3.85476 14.6808 4.29843C13.7034 4.87835 12.8904 5.72097 12.3387 6.75085C10.9779 6.67399 9.6086 7.24064 8.70054 8.3334C7.68887 9.55123 7.35099 11.2239 7.8037 12.7743C7.99112 13.4157 8.94471 13.1418 8.75663 12.4962C8.39895 11.2721 8.63653 9.9425 9.46737 8.99227C10.2844 8.05811 11.4399 7.67732 12.6212 7.82125C12.7802 7.84082 12.9775 7.71016 13.0475 7.56204C13.419 6.7781 13.9377 6.12272 14.5851 5.60988C14.6352 6.03748 14.7639 6.4574 14.9777 6.84378C15.6344 8.03086 16.9443 8.64991 18.218 8.41235C19.555 8.16292 20.529 6.98841 20.7191 5.60988C21.3665 6.12133 21.8865 6.776 22.2594 7.56274C22.3293 7.71086 22.5266 7.84152 22.6857 7.82195C23.8854 7.67453 25.0555 8.07209 25.8744 9.03279C26.6347 9.92503 26.9046 11.2022 26.5918 12.3544C26.2849 13.4863 25.4277 14.41 24.3724 14.7782C23.8834 14.9494 23.3931 14.9766 22.887 14.9766C19.9681 14.9766 17.0493 14.9766 14.1304 14.9766C12.8073 14.9766 11.4095 15.1471 10.225 14.4232C10.1814 14.3799 10.1313 14.3492 10.0765 14.3289C9.63565 14.0683 9.23508 14.6412 9.42514 15.0423C10.0191 17.705 10.6137 20.367 11.2083 23.0305C11.2947 23.4189 11.3818 23.8081 11.4683 24.1966C11.5184 24.4188 11.7336 24.5809 11.9447 24.5809C14.9685 24.5809 17.9923 24.5809 21.0167 24.5809C21.7987 24.5809 22.5807 24.5809 23.3628 24.5809C23.5733 24.5809 23.7897 24.4188 23.8392 24.1966C24.3282 22.0055 24.8172 19.8144 25.3062 17.6233C25.4521 16.9693 24.5005 16.6898 24.354 17.3452C23.8933 19.4091 23.4327 21.4717 22.9721 23.5356C20.0783 23.5356 17.1845 23.5356 14.2908 23.5356C13.6388 23.5356 12.9868 23.5356 12.3347 23.5356C11.7619 20.9714 11.1898 18.4065 10.6176 15.843C10.6097 15.8074 10.6018 15.7717 10.5939 15.7361C11.5983 16.075 12.6548 16.0225 13.7377 16.0225C15.4852 16.0225 17.2334 16.0225 18.9815 16.0225C20.3185 16.0225 21.6569 16.0225 22.9939 16.0225C25.0317 16.0225 26.9178 14.8201 27.5295 12.6849C27.9532 11.2057 27.6028 9.59385 26.6729 8.41654ZM16.0218 6.60902C14.8035 5.04743 16.1247 2.63833 18.0081 2.98208C18.8845 3.14278 19.5352 3.85965 19.7147 4.7442C19.7173 4.77284 19.7226 4.80149 19.7305 4.82944C19.7497 4.94682 19.7622 5.06629 19.7648 5.18787C19.7246 7.22387 17.2749 8.21532 16.0218 6.60902Z" fill="#5865F2" stroke="#5865F2" stroke-width="1.5"/>
</g>
<path d="M39.0782 13.7629L37.9078 19.2705L37.8346 19.6046C37.6198 20.5234 37.142 20.9815 36.399 20.9815C36.0013 20.9815 35.6698 20.8372 35.4023 20.5461C35.1326 20.25 35 19.8779 35 19.4325C35 19.3515 35.0023 19.2604 35.0091 19.1591C35.0137 19.0579 35.0297 18.9642 35.0549 18.8756L35.128 18.5517L37.3134 8.31614C37.398 7.90611 37.5603 7.58467 37.7981 7.35435C38.0404 7.11896 38.3239 7 38.6485 7C39.2703 7 39.7183 7.3999 39.9926 8.19465L42.0043 14.3198L43.9429 8.38701C44.1006 7.90105 44.2903 7.55177 44.5098 7.3341C44.7292 7.11137 44.999 7 45.3236 7C45.6711 7 45.9637 7.12149 46.2014 7.36447C46.4437 7.60239 46.6152 7.94155 46.7135 8.38701L48.9721 18.5314L49.0452 18.8554C49.0818 19.0655 49.1001 19.2705 49.1001 19.473C49.1001 19.8931 48.9629 20.25 48.6886 20.5461C48.4189 20.8372 48.0897 20.9815 47.701 20.9815C47.3399 20.9815 47.0358 20.8676 46.7866 20.6373C46.542 20.4019 46.3706 20.0652 46.2746 19.6248L46.1923 19.2705L44.9853 13.7629L43.3302 19.6653L43.2388 19.9488C43.1336 20.2804 42.9736 20.5411 42.7541 20.7284C42.5392 20.9106 42.2969 21.0017 42.0226 21.0017C41.4008 21.0017 40.9665 20.5563 40.7242 19.6653L39.0782 13.7629Z" fill="#5865F2"/>
<path d="M51.3574 9.10583V8.75148C51.3574 8.21996 51.4809 7.79475 51.7323 7.47584C51.9884 7.15946 52.3358 7 52.7747 7C53.2068 7 53.5543 7.16199 53.8172 7.48596C54.0778 7.80993 54.2104 8.23262 54.2104 8.75148V15.5144C54.2104 15.8738 54.2652 16.2029 54.3749 16.5066C54.4847 16.8103 54.6333 17.0735 54.823 17.2963C55.0173 17.5139 55.2482 17.6886 55.518 17.8227C55.7854 17.9518 56.0757 18.0151 56.3866 18.0151C56.7455 18.0151 57.0839 17.924 57.4016 17.7417C57.7171 17.5544 57.9777 17.3013 58.1789 16.9824C58.3115 16.7597 58.4098 16.537 58.4715 16.3142C58.5309 16.0864 58.5629 15.7928 58.5629 15.4334V8.75148C58.5743 8.21996 58.7092 7.79475 58.9652 7.47584C59.2213 7.15946 59.5596 7 59.9802 7C60.4123 7 60.7598 7.16199 61.0227 7.48596C61.2833 7.80993 61.4158 8.23262 61.4158 8.75148V15.4334C61.4158 16.2307 61.2878 16.9723 61.0318 17.6607C60.7758 18.3492 60.4237 18.9516 59.9802 19.4629C59.5345 19.9691 59.0064 20.369 58.3983 20.6575C57.788 20.941 57.1296 21.0827 56.4232 21.0827C55.7145 21.0827 55.0539 20.941 54.439 20.6575C53.8217 20.369 53.2868 19.9741 52.8296 19.473C52.3724 18.9668 52.0112 18.3745 51.7506 17.6911C51.4877 17.0103 51.3574 16.2839 51.3574 15.5144V9.10583Z" fill="#5865F2"/>
<path d="M64.4736 18.8965V8.96467C64.4965 7.73711 65.0497 7.12207 66.1287 7.12207H71.3774C71.8277 7.13726 72.182 7.2714 72.4381 7.52704C72.6987 7.7852 72.8313 8.13196 72.8313 8.56983C72.8313 9.01023 72.6964 9.35951 72.4289 9.62274C72.166 9.88091 71.8163 10.0075 71.3774 10.0075H67.3174V12.6904H70.5087C70.9042 12.7055 71.2219 12.8296 71.4597 13.065C71.702 13.3029 71.8254 13.6193 71.8254 14.0166C71.8254 14.4013 71.702 14.7152 71.4597 14.9582C71.2219 15.1961 70.9042 15.3125 70.5087 15.3125H67.3174V19.2508C67.3174 19.7925 67.1894 20.2227 66.9334 20.5467C66.6819 20.8656 66.3413 21.0226 65.9092 21.0226C65.4703 21.0226 65.1183 20.858 64.8577 20.5265C64.6016 20.1974 64.4736 19.7722 64.4736 19.2508V18.8965Z" fill="#5865F2"/>
<path d="M75.1294 18.8959V8.75148C75.1408 8.21996 75.2711 7.79475 75.5226 7.47584C75.7786 7.15946 76.1261 7 76.565 7C76.9971 7 77.3377 7.16199 77.5891 7.48596C77.8452 7.80993 77.9732 8.23262 77.9732 8.75148V19.2502C77.9732 19.7919 77.8452 20.2222 77.5891 20.5461C77.3377 20.865 76.9971 21.022 76.565 21.022C76.1261 21.022 75.774 20.8575 75.5134 20.5259C75.2574 20.1969 75.1294 19.7716 75.1294 19.2502V18.8959Z" fill="#5865F2"/>
<path d="M84.251 12.9024V19.2502C84.251 19.7919 84.123 20.2222 83.867 20.5461C83.6155 20.865 83.2749 21.022 82.8428 21.022C82.4039 21.022 82.0519 20.8575 81.7913 20.5259C81.5352 20.1969 81.4072 19.7716 81.4072 19.2502V8.83247C81.4072 8.53634 81.4209 8.31108 81.4529 8.15416C81.4827 7.99217 81.5467 7.83524 81.645 7.67832C81.9193 7.22779 82.2896 7 82.7605 7C83.0211 7 83.2475 7.06581 83.4372 7.19236C83.6315 7.31385 83.8533 7.5543 84.1047 7.91118L89.3168 15.1905V8.75148C89.3282 8.21996 89.4631 7.79475 89.7191 7.47584C89.9752 7.15946 90.3135 7 90.7341 7C91.173 7 91.5205 7.16199 91.7765 7.48596C92.0372 7.80993 92.1697 8.23262 92.1697 8.75148V19.0073C92.1697 19.392 92.156 19.6729 92.1332 19.8476C92.108 20.0171 92.0463 20.1766 91.9503 20.3234C91.8086 20.5613 91.6234 20.7461 91.3925 20.8802C91.1662 21.0144 90.9216 21.0827 90.661 21.0827C90.3981 21.0827 90.1763 21.0169 89.9935 20.8904C89.8152 20.7638 89.5911 20.5006 89.3168 20.1007L84.251 12.9024Z" fill="#5865F2"/>
</svg>
