<svg width="108" height="25" viewBox="0 0 108 25" fill="none" xmlns="http://www.w3.org/2000/svg">
<path d="M7.91465 11.7744L5.7082 21.3632L5.5703 21.9448C5.16521 23.5444 4.26453 24.342 2.86396 24.342C2.11411 24.342 1.48924 24.0908 0.985029 23.5841C0.476512 23.0685 0.226562 22.4207 0.226562 21.6452C0.226562 21.5042 0.230872 21.3455 0.2438 21.1693C0.252419 20.993 0.282585 20.83 0.32999 20.6757L0.467893 20.1117L4.58774 2.29143C4.74719 1.57756 5.05317 1.01792 5.50135 0.616923C5.95815 0.20711 6.49253 0 7.10447 0C8.27665 0 9.1213 0.696241 9.63844 2.07991L13.4308 12.7439L17.0852 2.41481C17.3825 1.56875 17.7402 0.960638 18.1539 0.58167C18.5677 0.19389 19.0762 0 19.6881 0C20.3432 0 20.8948 0.211516 21.3429 0.634549C21.7998 1.04877 22.123 1.63925 22.3083 2.41481L26.566 20.0764L26.7039 20.6405C26.7729 21.0062 26.8074 21.3632 26.8074 21.7157C26.8074 22.4472 26.5488 23.0685 26.0316 23.5841C25.5231 24.0908 24.9026 24.342 24.17 24.342C23.4891 24.342 22.9159 24.1437 22.4462 23.7427C21.9851 23.3329 21.6618 22.7468 21.4809 21.9801L21.3257 21.3632L19.0503 11.7744L15.9303 22.0506L15.7579 22.5441C15.5596 23.1214 15.258 23.5753 14.8443 23.9014C14.4392 24.2186 13.9824 24.3773 13.4652 24.3773C12.2931 24.3773 11.4743 23.6017 11.0175 22.0506L7.91465 11.7744Z" fill="#5865F2"/>
<path d="M31.063 3.66629V3.04936C31.063 2.12398 31.2957 1.38367 31.7697 0.82844C32.2524 0.277616 32.9074 0 33.7349 0C34.5493 0 35.2044 0.282022 35.7 0.846066C36.1913 1.41011 36.4412 2.14601 36.4412 3.04936V14.8238C36.4412 15.4495 36.5446 16.0224 36.7515 16.5512C36.9583 17.08 37.2385 17.5382 37.5961 17.926C37.9624 18.305 38.3977 18.609 38.9062 18.8426C39.4104 19.0673 39.9577 19.1775 40.5438 19.1775C41.2204 19.1775 41.8582 19.0189 42.4572 18.7016C43.0519 18.3755 43.5432 17.9348 43.9224 17.3796C44.1724 16.9918 44.3577 16.604 44.4741 16.2163C44.5861 15.8197 44.6464 15.3085 44.6464 14.6828V3.04936C44.668 2.12398 44.9222 1.38367 45.4049 0.82844C45.8876 0.277616 46.5254 0 47.3183 0C48.1328 0 48.7878 0.282022 49.2834 0.846066C49.7747 1.41011 50.0246 2.14601 50.0246 3.04936V14.6828C50.0246 16.0708 49.7833 17.362 49.3007 18.5606C48.818 19.7592 48.1543 20.8079 47.3183 21.6981C46.478 22.5794 45.4825 23.2756 44.3361 23.778C43.1855 24.2715 41.9444 24.5183 40.6128 24.5183C39.2768 24.5183 38.0314 24.2715 36.8722 23.778C35.7086 23.2756 34.7002 22.5882 33.8383 21.7157C32.9764 20.8344 32.2955 19.8032 31.8042 18.6134C31.3086 17.4281 31.063 16.1634 31.063 14.8238V3.66629Z" fill="#5865F2"/>
<path d="M55.7891 20.7119V3.4204C55.8322 1.2832 56.875 0.212402 58.9091 0.212402H68.8037C69.6526 0.238841 70.3206 0.472392 70.8032 0.917457C71.2945 1.36693 71.5445 1.97063 71.5445 2.73297C71.5445 3.49972 71.2902 4.10783 70.786 4.56612C70.2904 5.01559 69.6311 5.23592 68.8037 5.23592H61.15V9.90691H67.1661C67.9116 9.93335 68.5106 10.1493 68.9588 10.5591C69.4156 10.9733 69.6483 11.5241 69.6483 12.216C69.6483 12.8858 69.4156 13.4322 68.9588 13.8552C68.5106 14.2694 67.9116 14.4721 67.1661 14.4721H61.15V21.3288C61.15 22.2718 60.9087 23.0209 60.426 23.585C59.952 24.1402 59.3099 24.4134 58.4954 24.4134C57.668 24.4134 57.0043 24.127 56.5131 23.5497C56.0304 22.9769 55.7891 22.2366 55.7891 21.3288V20.7119Z" fill="#5865F2"/>
<path d="M75.877 20.711V3.04936C75.8985 2.12398 76.1441 1.38367 76.6182 0.82844C77.1008 0.277616 77.7559 0 78.5833 0C79.3978 0 80.0399 0.282022 80.5139 0.846066C80.9966 1.41011 81.2379 2.14601 81.2379 3.04936V21.3279C81.2379 22.2709 80.9966 23.02 80.5139 23.5841C80.0399 24.1393 79.3978 24.4125 78.5833 24.4125C77.7559 24.4125 77.0922 24.1261 76.6009 23.5488C76.1183 22.976 75.877 22.2357 75.877 21.3279V20.711Z" fill="#5865F2"/>
<path d="M93.0719 10.2762V21.3279C93.0719 22.2709 92.8306 23.02 92.3479 23.5841C91.8739 24.1393 91.2318 24.4125 90.4173 24.4125C89.5899 24.4125 88.9262 24.1261 88.4349 23.5488C87.9523 22.976 87.7109 22.2357 87.7109 21.3279V3.19037C87.7109 2.6748 87.7368 2.28261 87.7971 2.00941C87.8531 1.72738 87.9738 1.45418 88.1591 1.18097C88.6763 0.396594 89.3744 0 90.2621 0C90.7534 0 91.1801 0.114572 91.5377 0.334901C91.904 0.546418 92.3221 0.965044 92.7961 1.58637L102.622 14.2597V3.04936C102.643 2.12398 102.897 1.38367 103.38 0.82844C103.863 0.277616 104.501 0 105.294 0C106.121 0 106.776 0.282022 107.259 0.846066C107.75 1.41011 108 2.14601 108 3.04936V20.9049C108 21.5747 107.974 22.0638 107.931 22.3679C107.884 22.6631 107.767 22.9407 107.586 23.1963C107.319 23.6105 106.97 23.9322 106.535 24.1658C106.108 24.3993 105.647 24.5183 105.156 24.5183C104.66 24.5183 104.242 24.4037 103.897 24.1834C103.561 23.9631 103.139 23.5048 102.622 22.8085L93.0719 10.2762Z" fill="#5865F2"/>
</svg>
