<svg width="26" height="26" viewBox="0 0 26 26" fill="none" xmlns="http://www.w3.org/2000/svg">
<mask id="mask0_362_791" style="mask-type:luminance" maskUnits="userSpaceOnUse" x="0" y="0" width="27" height="26">
<path d="M1 1H25.3555V24.8353H1V1Z" fill="white" stroke="white" stroke-width="1.5"/>
</mask>
<g mask="url(#mask0_362_791)">
<path d="M24.0488 7.90964C22.9618 6.71306 21.2731 6.0885 19.5971 6.17095C18.9335 5.09403 17.9567 4.21191 16.7802 3.60924C16.4559 2.5761 15.6393 1.72025 14.5016 1.32479C13.0658 0.826459 11.3541 1.23651 10.3734 2.32511C10.0293 2.7067 9.78349 3.14593 9.64157 3.60924C8.4674 4.21483 7.49064 5.09475 6.82784 6.17022C5.19304 6.08996 3.54793 6.68169 2.45701 7.82282C1.24161 9.09455 0.83568 10.8413 1.37956 12.4603C1.60472 13.1301 2.75035 12.8441 2.5244 12.1699C2.09468 10.8916 2.3801 9.50314 3.37827 8.51085C4.35978 7.53534 5.74802 7.1377 7.16717 7.288C7.35824 7.30843 7.5953 7.17199 7.67934 7.01731C8.12569 6.19867 8.74885 5.51429 9.52661 4.97874C9.58687 5.42527 9.74147 5.86378 9.99834 6.26726C10.7872 7.50689 12.361 8.15334 13.8911 7.90526C15.4974 7.64479 16.6676 6.41829 16.8959 4.97874C17.6737 5.51283 18.2984 6.19649 18.7464 7.01804C18.8304 7.17272 19.0675 7.30916 19.2585 7.28873C20.6999 7.13478 22.1056 7.54994 23.0895 8.55317C24.0028 9.4849 24.3271 10.8186 23.9513 12.0218C23.5826 13.2038 22.5527 14.1683 21.285 14.5529C20.6975 14.7316 20.1084 14.7601 19.5003 14.7601C15.9937 14.7601 12.487 14.7601 8.98036 14.7601C7.39075 14.7601 5.71155 14.9381 4.28843 14.1822C4.2361 14.137 4.17585 14.1049 4.11004 14.0837C3.58044 13.8116 3.09919 14.4099 3.32753 14.8287C4.04107 17.6093 4.7554 20.3891 5.46974 23.1704C5.57359 23.5761 5.67825 23.9825 5.78211 24.3882C5.84236 24.6202 6.10082 24.7895 6.35453 24.7895C9.98725 24.7895 13.62 24.7895 17.2535 24.7895C18.193 24.7895 19.1325 24.7895 20.072 24.7895C20.3249 24.7895 20.5849 24.6202 20.6444 24.3882C21.2319 22.1001 21.8193 19.812 22.4068 17.5239C22.582 16.841 21.4388 16.5491 21.2628 17.2335C20.7094 19.3888 20.156 21.5427 19.6026 23.698C16.1261 23.698 12.6495 23.698 9.17302 23.698C8.38971 23.698 7.6064 23.698 6.82309 23.698C6.13491 21.0202 5.44754 18.3418 4.76016 15.6648C4.75064 15.6276 4.74113 15.5904 4.73162 15.5532C5.93829 15.907 7.20761 15.8523 8.50863 15.8523C10.608 15.8523 12.7082 15.8523 14.8084 15.8523C16.4147 15.8523 18.0225 15.8523 19.6288 15.8523C22.077 15.8523 24.3429 14.5966 25.0779 12.3669C25.5868 10.8223 25.1659 9.13906 24.0488 7.90964ZM11.2526 6.02211C9.78904 4.3914 11.3763 1.87566 13.639 2.23463C14.6919 2.40245 15.4736 3.15104 15.6892 4.07474C15.6924 4.10466 15.6987 4.13457 15.7083 4.16376C15.7313 4.28633 15.7463 4.4111 15.7495 4.53805C15.7011 6.66417 12.7582 7.69951 11.2526 6.02211Z" fill="#5865F2" stroke="#5865F2"/>
</g>
</svg>
